<?xml version="1.0" standalone="no"?>
<!DOCTYPE svg PUBLIC "-//W3C//DTD SVG 20010904//EN"
 "http://www.w3.org/TR/2001/REC-SVG-20010904/DTD/svg10.dtd">
<svg version="1.0" xmlns="http://www.w3.org/2000/svg"
 width="700.000000pt" height="700.000000pt" viewBox="0 0 700.000000 700.000000"
 preserveAspectRatio="xMidYMid meet">
<metadata>
Created by potrace 1.14, written by Peter Selinger 2001-2017
</metadata>
<g transform="translate(0.000000,700.000000) scale(0.100000,-0.100000)"
fill="#000000" stroke="none">
<path d="M0 6980 c0 -11 5 -20 10 -20 6 0 10 -31 10 -74 0 -41 -5 -78 -10 -81
-13 -8 -13 -105 0 -105 13 0 13 -147 0 -155 -13 -8 -13 -105 0 -105 13 0 13
-147 0 -155 -13 -8 -13 -105 0 -105 13 0 13 -147 0 -155 -6 -3 -10 -29 -10
-56 0 -31 4 -48 10 -44 6 4 10 -23 10 -74 0 -44 -5 -83 -10 -86 -6 -3 -10 -29
-10 -56 0 -31 4 -48 10 -44 6 4 10 -23 10 -74 0 -44 -5 -83 -10 -86 -6 -3 -10
-29 -10 -56 0 -31 4 -48 10 -44 6 4 10 -23 10 -74 0 -44 -5 -83 -10 -86 -6 -3
-10 -29 -10 -58 l0 -51 48 47 48 47 79 0 80 0 -128 -128 -127 -127 0 -50 0
-50 178 178 177 177 80 0 80 0 -258 -258 -257 -257 0 -50 0 -50 308 308 307
307 80 0 80 0 -388 -388 -387 -387 0 -50 0 -50 438 438 437 437 80 0 80 0
-518 -518 -517 -517 0 -50 0 -50 568 568 567 567 80 0 80 0 -648 -648 -648
-648 3 -42 3 -41 695 689 695 689 80 0 80 0 -777 -772 -778 -772 0 -50 0 -50
823 822 822 822 60 3 60 3 3 62 3 62 826 820 825 821 -48 0 -49 0 -777 -777
-778 -778 0 85 0 85 692 692 693 693 -45 0 -45 0 -647 -647 -648 -648 0 80 0
80 567 567 568 568 -50 0 -50 0 -517 -517 -518 -518 0 80 0 80 437 437 438
438 -50 0 -50 0 -387 -387 -388 -388 0 80 0 80 307 307 308 308 -50 0 -50 0
-257 -257 -258 -258 0 80 0 80 177 177 178 178 -50 0 -50 0 -127 -127 -128
-128 0 80 0 79 47 48 47 48 -51 0 c-29 0 -55 -4 -58 -10 -3 -5 -42 -10 -86
-10 -51 0 -78 4 -74 10 4 6 -13 10 -44 10 -27 0 -53 -4 -56 -10 -3 -5 -42 -10
-86 -10 -51 0 -78 4 -74 10 4 6 -13 10 -44 10 -27 0 -53 -4 -56 -10 -3 -5 -42
-10 -86 -10 -51 0 -78 4 -74 10 4 6 -13 10 -44 10 -27 0 -53 -4 -56 -10 -3 -5
-40 -10 -81 -10 -43 0 -74 4 -74 10 0 6 -22 10 -49 10 -28 0 -53 -4 -56 -10
-3 -5 -40 -10 -81 -10 -43 0 -74 4 -74 10 0 6 -22 10 -49 10 -28 0 -53 -4 -56
-10 -3 -5 -40 -10 -81 -10 -43 0 -74 4 -74 10 0 6 -22 10 -49 10 -28 0 -53 -4
-56 -10 -3 -5 -40 -10 -81 -10 -43 0 -74 4 -74 10 0 6 -9 10 -20 10 -13 0 -20
-7 -20 -20z"/>
<path d="M3565 6990 c-3 -5 -15 -10 -26 -10 -11 0 -19 -7 -19 -18 0 -9 -366
-383 -840 -857 -462 -462 -840 -843 -840 -847 0 -5 19 -8 43 -8 l42 0 790 790
c434 435 793 790 797 790 5 0 8 -33 8 -72 l0 -73 -717 -717 -718 -718 50 0 50
0 660 660 c363 363 663 660 667 660 5 0 8 -33 8 -72 l0 -73 -587 -587 -588
-588 50 0 50 0 537 537 538 538 0 -80 0 -80 -457 -457 -458 -458 50 0 50 0
407 407 408 408 0 -80 0 -80 -327 -327 -328 -328 50 0 50 0 277 277 278 278 0
-80 0 -80 -197 -197 -198 -198 50 0 50 0 147 147 148 148 0 -80 0 -79 -67 -68
-67 -68 48 0 c32 0 56 6 68 17 17 15 18 15 18 -10 0 -26 2 -27 52 -27 l52 0
-62 -63 c-59 -60 -62 -65 -62 -112 l0 -50 113 113 112 112 80 0 80 0 -193
-193 -192 -192 0 -50 0 -50 243 243 242 242 80 0 80 0 -323 -323 -322 -322 0
-50 0 -50 373 373 372 372 80 0 80 0 -453 -453 -452 -452 0 -50 0 -50 503 503
502 502 80 0 80 0 -583 -583 -582 -582 0 -50 0 -50 633 633 632 632 80 0 80 0
-713 -713 -713 -713 3 -41 3 -41 760 754 760 753 75 1 75 0 -838 -838 c-703
-703 -837 -841 -837 -865 0 -23 -4 -27 -27 -27 -24 0 -162 -134 -865 -837
l-838 -838 0 80 0 80 757 757 758 758 -50 0 -50 0 -707 -707 -708 -708 0 80 0
81 628 627 629 627 -46 0 -46 0 -582 -582 -583 -583 0 80 0 80 502 502 503
503 -50 0 -50 0 -452 -452 -453 -453 0 80 0 80 372 372 373 373 -50 0 -50 0
-322 -322 -323 -323 0 80 0 80 242 242 243 243 -50 0 -50 0 -192 -192 -193
-193 0 80 0 80 112 112 113 113 -50 0 c-47 0 -52 -3 -112 -62 l-63 -62 0 52
c0 50 -1 52 -27 52 -25 0 -25 1 -10 18 11 12 17 36 17 67 l0 48 -69 -66 -69
-67 -78 0 -79 0 148 148 147 147 0 50 0 50 -198 -198 -197 -197 -73 0 c-39 0
-72 3 -72 8 0 4 122 129 270 277 l270 270 0 50 0 50 -328 -328 -327 -327 -73
0 c-39 0 -72 3 -72 8 0 4 180 187 400 407 l400 400 0 50 0 50 -458 -458 -457
-457 -73 0 c-39 0 -72 3 -72 8 0 4 239 246 530 537 l530 530 0 50 0 50 -588
-588 -587 -587 -73 0 c-39 0 -72 3 -72 8 0 4 297 304 660 667 l660 660 0 50 0
50 -718 -718 -717 -717 -73 0 c-39 0 -72 3 -72 8 0 4 356 363 790 797 l790
790 0 50 0 50 -848 -848 c-476 -476 -855 -847 -865 -847 -10 0 -17 -8 -17 -19
0 -11 -4 -23 -10 -26 -13 -8 -13 -105 0 -105 13 0 13 -147 0 -155 -5 -3 -10
-29 -10 -56 0 -31 4 -48 10 -44 6 4 10 -23 10 -74 0 -44 -5 -83 -10 -86 -6 -3
-10 -29 -10 -56 0 -31 4 -48 10 -44 6 4 10 -23 10 -74 0 -44 -4 -83 -10 -86
-5 -3 -10 -29 -10 -56 0 -31 4 -48 10 -44 6 4 10 -23 10 -74 0 -44 -5 -83 -10
-86 -6 -3 -10 -29 -10 -56 0 -31 4 -48 10 -44 6 4 10 -23 10 -74 0 -44 -4 -83
-10 -86 -5 -3 -10 -29 -10 -56 0 -31 4 -48 10 -44 6 4 10 -23 10 -74 0 -44 -4
-83 -10 -86 -5 -3 -10 -29 -10 -56 0 -31 4 -48 10 -44 6 4 10 -5 10 -19 0 -25
3 -26 52 -26 l52 0 -62 -63 c-59 -60 -62 -65 -62 -112 l0 -50 113 113 112 112
80 0 80 0 -193 -193 -192 -192 0 -50 0 -50 243 243 242 242 80 0 80 0 -323
-323 -322 -322 0 -50 0 -50 373 373 372 372 80 0 80 0 -453 -453 -453 -453 3
-48 3 -47 494 500 493 501 85 0 85 0 -581 -576 -581 -576 0 -52 0 -51 628 628
627 627 80 0 80 0 -708 -708 -707 -707 0 -50 0 -50 758 758 757 757 80 0 80 0
-838 -838 c-703 -703 -837 -841 -837 -865 0 -21 5 -27 23 -27 16 0 248 227
873 853 468 468 854 860 857 870 4 9 17 21 29 26 13 5 405 392 873 860 467
468 853 851 857 851 5 0 8 -33 8 -72 l0 -73 -782 -782 -783 -783 50 0 50 0
725 725 c399 399 728 725 732 725 5 0 8 -33 8 -72 l0 -73 -652 -652 -653 -653
50 0 50 0 602 602 603 603 0 -80 0 -80 -522 -522 -523 -523 50 0 50 0 472 472
473 473 0 -80 0 -80 -392 -392 -393 -393 50 0 50 0 342 342 343 343 0 -80 0
-80 -262 -262 -263 -263 50 0 50 0 212 212 213 213 0 -80 0 -80 -132 -132
-133 -133 50 0 c49 0 51 1 132 82 l83 83 0 -82 c0 -45 -4 -85 -10 -88 -6 -3
-10 -29 -10 -58 l0 -51 48 47 48 47 79 0 80 0 -128 -128 -127 -127 0 -50 0
-50 178 178 177 177 80 0 80 0 -258 -258 -257 -257 0 -50 0 -50 308 308 307
307 80 0 80 0 -388 -388 -388 -388 3 -47 3 -46 435 434 435 435 75 0 75 0
-513 -513 -512 -512 0 -50 0 -50 563 563 563 563 83 -3 83 -3 -647 -644 -646
-643 3 -47 3 -46 693 690 693 690 77 3 77 3 -772 -773 -773 -773 0 -50 0 -50
822 822 823 822 60 3 60 3 3 60 3 60 822 823 822 823 -47 -3 -48 -3 -775 -775
-775 -774 0 79 0 80 697 697 698 698 -50 0 -50 0 -647 -647 -648 -648 0 85 0
85 562 562 563 563 -45 0 -45 0 -517 -517 -518 -518 0 80 0 80 437 437 438
438 -50 0 -50 0 -387 -387 -388 -388 0 80 0 80 307 307 308 308 -50 0 -50 0
-257 -257 -258 -258 0 80 0 80 177 177 178 178 -50 0 -50 0 -127 -127 -128
-128 0 80 0 79 48 49 47 49 -60 -7 c-33 -3 -96 -8 -140 -11 l-80 -5 83 83 c81
82 82 84 82 133 l0 50 -133 -133 -132 -132 -80 0 -80 0 213 213 212 212 0 50
0 50 -263 -263 -262 -262 -73 0 c-39 0 -72 3 -72 8 0 4 151 158 335 342 l335
335 0 50 0 50 -393 -393 -392 -392 -73 0 c-39 0 -72 3 -72 8 0 4 209 216 465
472 l465 465 0 50 0 50 -523 -523 -522 -522 -73 0 c-39 0 -72 3 -72 8 0 4 268
275 595 602 l595 595 0 50 0 50 -653 -653 -652 -652 -73 0 c-39 0 -72 3 -72 7
0 5 327 335 726 734 l725 725 -3 42 -3 42 -780 -774 -780 -775 -72 0 c-40 -1
-73 2 -73 7 0 4 383 390 851 857 468 468 855 860 860 873 5 12 20 27 34 32 13
5 405 388 870 851 735 732 845 846 845 871 0 25 -3 29 -24 26 -15 -2 -301
-278 -862 -836 l-839 -834 -3 73 -3 73 763 763 763 763 -50 0 -50 0 -712 -712
-713 -713 0 80 0 80 632 632 633 633 -50 0 -50 0 -582 -582 -583 -583 0 80 0
80 502 502 503 503 -50 0 -50 0 -452 -452 -453 -453 0 80 0 80 372 372 373
373 -50 0 -50 0 -322 -322 -323 -323 0 80 0 80 242 242 243 243 -50 0 -50 0
-192 -192 -193 -193 0 80 0 80 112 112 113 113 -50 0 c-47 0 -52 -3 -112 -62
l-63 -62 0 52 c0 49 -1 52 -26 52 -14 0 -23 4 -19 10 4 6 -13 10 -44 10 -27 0
-53 -4 -56 -10 -3 -5 -42 -10 -86 -10 -51 0 -78 4 -74 10 4 6 -13 10 -44 10
-27 0 -53 -4 -56 -10 -3 -5 -42 -10 -86 -10 -51 0 -78 4 -74 10 4 6 -13 10
-44 10 -27 0 -53 -4 -56 -10 -3 -5 -42 -10 -86 -10 -51 0 -78 4 -74 10 4 6
-13 10 -44 10 -27 0 -53 -4 -56 -10 -3 -5 -42 -10 -86 -10 -51 0 -78 4 -74 10
4 6 -13 10 -44 10 -27 0 -53 -4 -56 -10 -3 -5 -40 -10 -81 -10 -43 0 -74 4
-74 10 0 6 -22 10 -49 10 -28 0 -53 -4 -56 -10 -3 -5 -40 -10 -81 -10 -43 0
-74 4 -74 10 0 6 -22 10 -49 10 -28 0 -53 -4 -56 -10z"/>
<path d="M6233 6020 l-762 -765 41 -3 42 -3 723 723 724 724 -3 45 -3 44 -762
-765z"/>
<path d="M6355 5890 l-640 -640 50 0 50 0 593 593 593 593 -3 47 -3 47 -640
-640z"/>
<path d="M6485 5760 l-510 -510 50 0 50 0 463 463 463 463 -3 47 -3 47 -510
-510z"/>
<path d="M6615 5630 l-380 -380 50 0 50 0 333 333 333 333 -3 47 -3 47 -380
-380z"/>
<path d="M6745 5500 l-250 -250 50 0 50 0 203 203 203 203 -3 47 -3 47 -250
-250z"/>
<path d="M6875 5370 l-120 -120 50 0 c49 0 52 2 123 73 72 73 73 74 70 121
l-3 47 -120 -121z"/>
<path d="M6168 2593 c-456 -456 -828 -831 -828 -836 0 -4 19 -7 43 -7 l42 0
788 788 788 788 -3 47 -3 47 -827 -827z"/>
<path d="M6298 2463 c-384 -384 -698 -701 -698 -706 0 -4 19 -7 43 -7 l42 0
658 658 658 658 -3 47 -3 47 -697 -697z"/>
<path d="M6428 2333 c-313 -313 -568 -571 -568 -576 0 -4 19 -7 43 -7 l42 0
528 528 528 528 -3 47 -3 47 -567 -567z"/>
<path d="M6550 2195 l-445 -445 50 0 50 0 398 398 398 398 -3 47 -3 47 -445
-445z"/>
<path d="M6680 2065 l-315 -315 50 0 50 0 268 268 268 268 -3 47 -3 47 -315
-315z"/>
<path d="M6810 1935 l-185 -185 50 0 50 0 138 138 138 139 -3 46 -3 47 -185
-185z"/>
<path d="M6940 1805 l-54 -55 52 0 c60 0 65 6 60 69 l-3 42 -55 -56z"/>
<path d="M4418 843 c-456 -456 -828 -831 -828 -836 0 -4 19 -7 43 -7 l42 0
788 788 788 788 -3 47 -3 47 -827 -827z"/>
<path d="M982 778 c-419 -420 -762 -766 -762 -771 0 -4 19 -7 43 -7 l42 0 723
723 723 723 -3 47 -3 47 -763 -762z"/>
<path d="M4540 705 l-705 -705 50 0 50 0 658 658 658 658 -3 47 -3 47 -705
-705z"/>
<path d="M1105 640 l-640 -640 50 0 50 0 593 593 593 593 -3 47 -3 47 -640
-640z"/>
<path d="M4670 575 l-575 -575 50 0 50 0 528 528 528 528 -3 47 -3 47 -575
-575z"/>
<path d="M1235 510 l-510 -510 50 0 50 0 463 463 463 463 -3 47 -3 47 -510
-510z"/>
<path d="M4800 445 l-445 -445 50 0 50 0 398 398 398 398 -3 47 -3 47 -445
-445z"/>
<path d="M1365 380 l-380 -380 50 0 50 0 333 333 333 333 -3 47 -3 47 -380
-380z"/>
<path d="M4930 315 l-315 -315 50 0 50 0 268 268 268 268 -3 47 -3 47 -315
-315z"/>
<path d="M1495 250 l-250 -250 50 0 50 0 203 203 203 203 -3 47 -3 47 -250
-250z"/>
<path d="M5060 185 l-185 -185 50 0 50 0 138 138 138 139 -3 46 -3 47 -185
-185z"/>
<path d="M1625 120 l-120 -120 50 0 c49 0 52 2 123 73 72 73 73 74 70 121 l-3
47 -120 -121z"/>
<path d="M5190 55 l-54 -55 52 0 c60 0 65 6 60 69 l-3 42 -55 -56z"/>
</g>
</svg>
