
<svg width="82" height="57" viewBox="0 0 82 57" version="1.1" xmlns="http://www.w3.org/2000/svg" xmlns:xlink="http://www.w3.org/1999/xlink"><title>Group 7</title><defs><path id="path-1" d="M0 .283h81.723v44.715H0z"/><path id="path-3" d="M.25.222h81.689v40.854H.249z"/></defs><g id="Home---Desktop" stroke="none" stroke-width="1" fill="none" fill-rule="evenodd"><g id="01_D_Home" transform="translate(-69 -55)"><g id="Nav" transform="translate(69 55)"><g id="Group-7" transform="translate(0 .513)"><g id="Group-3" transform="translate(0 .048)"><mask id="mask-2" fill="#fff"><use xlink:href="#path-1"/></mask><path d="M78.908 31.976c-.186 0-.367.02-.543.054L62.93 4.972a2.801 2.801 0 0 0 .72-1.874 2.815 2.815 0 1 0-4.786 2.008L42.114 39.39a2.802 2.802 0 0 0-2.236.717l-14.883-8.164c.03-.163.048-.33.048-.503a2.815 2.815 0 1 0-5.614.295l-14.557 6.61a2.804 2.804 0 0 0-2.057-.899 2.815 2.815 0 1 0 2.8 2.524l14.558-6.61a2.805 2.805 0 0 0 3.96.148l14.875 8.16a2.815 2.815 0 1 0 4.718-1.51L60.472 5.886a2.733 2.733 0 0 0 .908-.027l15.434 27.056a2.802 2.802 0 0 0-.72 1.876 2.815 2.815 0 1 0 2.815-2.815" id="Fill-1" fill="#2CDDE9" mask="url(#mask-2)"/></g><g id="Group-6" transform="translate(0 14.955)"><mask id="mask-4" fill="#fff"><use xlink:href="#path-3"/></mask><path d="M79.124 35.42c-.133 0-.262.013-.39.03L63.079 5.01a2.815 2.815 0 1 0-4.82-1.974c0 .14.013.274.032.407L43.75 10.839a2.804 2.804 0 0 0-1.981-.816c-.787 0-1.497.323-2.007.843L25.289 3.672a2.815 2.815 0 1 0-5.599-.394c0 .713.267 1.361.703 1.857L3.569 35.495a2.815 2.815 0 1 0 2.31 2.767c0-.736-.284-1.403-.745-1.904L21.936 6.036a2.818 2.818 0 0 0 2.556-.764l14.487 7.201a2.815 2.815 0 1 0 5.603.365c0-.137-.013-.27-.031-.401l14.544-7.399a2.805 2.805 0 0 0 1.979.814c.14 0 .277-.014.411-.034l15.649 30.427a2.815 2.815 0 1 0 1.99-.825" id="Fill-4" fill="#FFF" mask="url(#mask-4)"/></g></g></g></g></g></svg>