<svg width="163" height="48" viewBox="0 0 163 48" fill="none" xmlns="http://www.w3.org/2000/svg">
<path d="M122.353 12.9367C110.483 7.32089 80.9128 0 53.7362 0L51.3298 0.0212775C26.942 0.41704 4.98881 6.99322 0.219793 26.3834L0 27.3473C8.14294 14.4467 19.5065 2.64905 52.9143 2.64905C61.306 2.64905 71.09 3.39235 82.5609 5.05058C94.0361 6.70881 107.199 9.27913 122.353 12.9367ZM137.912 15.8553L132.431 15.3369L131.991 9.83093L129.806 14.9007L124.452 13.619L128.58 17.271L125.712 21.9854L130.452 19.1732L134.032 23.3677L132.83 17.9774L137.912 15.8553ZM24.0514 35.3569C20.2768 35.3569 17.4096 32.2333 17.4096 28.2488V28.1991C17.4096 24.2394 20.2528 21.1407 24.0514 21.1407C26.3794 21.1407 27.9971 22.1244 29.4431 23.501L30.7668 22.0754C29.0516 20.4513 27.1886 19.3448 24.0762 19.3448C19.0273 19.3448 15.3997 23.379 15.3997 28.2488V28.2977C15.3997 33.2412 19.0513 37.1527 24.002 37.1527C27.1151 37.1527 29.0756 35.9477 30.865 34.127L29.5908 32.8724C27.9483 34.4469 26.4041 35.3569 24.0514 35.3569ZM35.9909 18.9023H34.104V36.8577H35.9909V18.9023ZM45.6731 23.8706C42.1685 23.8706 39.5953 26.8218 39.5953 30.4865V30.5361C39.5953 34.4717 42.4377 37.152 45.9184 37.152C48.3198 37.152 49.8641 36.1931 51.1383 34.7661L49.9623 33.7086C48.9326 34.7909 47.7078 35.5044 45.9671 35.5044C43.7127 35.5044 41.7762 33.9547 41.5063 31.1993H51.5553C51.58 30.9787 51.58 30.8304 51.58 30.5843C51.58 26.8707 49.423 23.8706 45.6731 23.8706ZM41.5063 29.7978C41.7515 27.314 43.4187 25.4685 45.6237 25.4685C48.1481 25.4685 49.4718 27.4856 49.6683 29.7978H41.5063ZM59.6699 23.9684C57.8317 23.9684 56.4593 24.3862 55.0628 25.0266L55.626 26.5756C56.802 26.0345 57.9794 25.6409 59.4742 25.6409C61.8516 25.6409 63.2481 26.8218 63.2481 29.1091V29.5517C62.1216 29.2325 60.9689 29.0105 59.3519 29.0105C56.1412 29.0105 53.9348 30.4375 53.9348 33.1185V33.1674C53.9348 35.7753 56.313 37.1279 58.665 37.1279C60.8954 37.1279 62.3668 36.0945 63.2481 34.9391V36.8577H65.0616V29.0843C65.0616 27.4615 64.6213 26.2309 63.7633 25.3706C62.8311 24.4365 61.4594 23.9684 59.6699 23.9684ZM63.2728 32.1837C63.2728 34.2008 61.3611 35.6271 59.0332 35.6271C57.3172 35.6271 55.8472 34.6923 55.8472 33.0937V33.0447C55.8472 31.4454 57.1709 30.4127 59.5477 30.4127C61.0919 30.4127 62.3421 30.6836 63.2728 30.9539V32.1837ZM69.085 24.1415V36.8577H70.972V31.7908C70.972 27.9537 73.2257 25.9607 75.9954 25.9607H76.1424V23.9202C73.7402 23.8216 71.902 25.3465 70.972 27.4615V24.1415H69.085ZM87.1737 34.3483C83.8896 34.3483 81.5121 31.6184 81.5121 28.2488V28.1991C81.5121 24.8295 83.9136 22.1244 87.1737 22.1244C89.1342 22.1244 90.6056 22.9854 91.9767 24.2642L93.9145 22.0258C92.2714 20.4513 90.3597 19.3448 87.1985 19.3448C82.0026 19.3448 78.3502 23.3542 78.3502 28.2488V28.2977C78.3502 33.2412 82.0754 37.1527 87.0755 37.1527C90.2869 37.1527 92.2467 35.9725 94.0354 34.1022L92.0997 32.1348C90.6297 33.5121 89.2812 34.3483 87.1737 34.3483ZM103.867 23.5996C101.858 23.5996 100.657 24.6571 99.8235 25.8628V18.9023H96.8588V36.8577H99.8235V29.5275C99.8235 27.5104 101.025 26.3061 102.74 26.3061C104.505 26.3061 105.51 27.4615 105.51 29.4786V36.8577H108.476V28.5686C108.476 25.5678 106.784 23.5996 103.867 23.5996ZM125.145 30.3886V30.3389C125.145 26.6246 122.228 23.5996 118.258 23.5996C114.287 23.5996 111.347 26.6742 111.347 30.3886V30.4375C111.347 34.127 114.263 37.152 118.209 37.152C122.204 37.152 125.145 34.0774 125.145 30.3886ZM114.312 30.3886V30.3389C114.312 28.0771 115.832 26.2068 118.209 26.2068C120.538 26.2068 122.179 28.1012 122.179 30.3886V30.4375C122.179 32.6752 120.66 34.5448 118.258 34.5448C115.955 34.5448 114.312 32.6511 114.312 30.3886ZM131.301 23.8706H128.334V36.8577H131.301V23.8706ZM146.449 34.7171L144.659 32.9461C143.727 33.9058 142.698 34.5448 141.301 34.5448C139.022 34.5448 137.429 32.7007 137.429 30.3886V30.3389C137.429 28.0771 139.022 26.2068 141.18 26.2068C142.649 26.2068 143.606 26.8714 144.512 27.8303L146.374 25.838C145.15 24.5096 143.63 23.5996 141.203 23.5996C137.306 23.5996 134.464 26.6983 134.464 30.3886V30.4375C134.464 34.127 137.306 37.152 141.155 37.152C143.679 37.152 145.174 36.1434 146.449 34.7171ZM154.417 23.5996C150.716 23.5996 148.094 26.6494 148.094 30.363V30.4127C148.094 34.4221 150.985 37.152 154.735 37.152C157.113 37.152 158.804 36.1931 160.029 34.7171L158.289 33.1674C157.259 34.176 156.23 34.7171 154.785 34.7171C152.873 34.7171 151.378 33.5369 151.059 31.4212H160.568C160.594 31.1262 160.618 30.8553 160.618 30.585C160.618 26.8466 158.534 23.5996 154.417 23.5996ZM151.034 29.4538C151.304 27.4367 152.579 26.0345 154.392 26.0345C156.353 26.0345 157.481 27.5353 157.677 29.4538H151.034ZM19.3715 42.6686H17.4237V47.9106H19.3715C21.0132 47.9106 22.1475 46.7645 22.1475 45.2892V45.2751C22.1475 43.7998 21.0132 42.6686 19.3715 42.6686ZM21.1849 45.3041C21.1849 46.3304 20.469 47.0716 19.3715 47.0716H18.3418V43.5069H19.3715C20.469 43.5069 21.1849 44.2637 21.1849 45.2892V45.3041ZM25.9299 45.6793H28.5491V44.8552H25.9299V43.4927H28.8848V42.6686H25.0119V47.9106H28.9215V47.0865H25.9299V45.6793ZM35.4128 46.2928L32.6142 42.6686H31.764V47.9106H32.6672V44.1814L35.5471 47.9106H36.316V42.6686H35.4128V46.2928ZM39.0384 43.5218H40.6949V47.9099H41.62V43.5218H43.2766V42.6686H39.0384V43.5218ZM47.1785 42.631L44.8802 47.9099H45.8201L46.3573 46.6446H48.8273L49.3573 47.9099H50.327L48.0287 42.631H47.1785ZM46.6937 45.8283L47.5884 43.7317L48.4916 45.8283H46.6937ZM53.8931 42.6686H52.9751V47.9106H56.6388V47.0723H53.8931V42.6686ZM63.3902 47.9106H64.3082V42.6686H63.3902V47.9106ZM70.0228 45.1474L68.4334 42.6686H67.456V47.9106H68.3592V44.1665L69.9931 46.6226H70.0228L71.6723 44.1509V47.9106H72.5897V42.6686H71.6123L70.0228 45.1474ZM77.7446 42.6686H75.6851V47.9106H76.6025V46.2255H77.64C78.7891 46.2255 79.7291 45.6112 79.7291 44.4353V44.4211C79.7291 43.365 78.9679 42.6686 77.7446 42.6686ZM78.7969 44.4587C78.7969 45.0048 78.3636 45.3942 77.6696 45.3942H76.6025V43.5069H77.6696C78.3559 43.5069 78.7969 43.8296 78.7969 44.4431V44.4587ZM83.3404 42.6686H82.4224V47.9106H86.0861V47.0723H83.3404V42.6686ZM90.6438 42.631L88.3462 47.9099H89.2862L89.8233 46.6446H92.2926L92.8233 47.9099H93.793L91.4947 42.631H90.6438ZM90.1597 45.8283L91.0544 43.7317L91.9576 45.8283H90.1597ZM100.09 46.2928L97.2913 42.6686H96.4411V47.9106H97.3443V44.1814L100.224 47.9106H100.993V42.6686H100.09V46.2928ZM103.715 43.5218H105.372V47.9099H106.297V43.5218H107.954V42.6686H103.715V43.5218ZM117.123 47.1461C116.123 47.1461 115.399 46.3148 115.399 45.2892V45.2743C115.399 44.2481 116.131 43.4246 117.123 43.4246C117.72 43.4246 118.167 43.6863 118.585 44.0757L119.174 43.3941C118.675 42.9147 118.092 42.5785 117.13 42.5785C115.548 42.5785 114.437 43.7991 114.437 45.2892V45.3041C114.437 46.8092 115.571 48 117.093 48C118.071 48 118.667 47.6404 119.212 47.0716L118.623 46.4723C118.174 46.8922 117.765 47.1461 117.123 47.1461ZM122.845 45.6793H125.464V44.8552H122.845V43.4927H125.8V42.6686H121.927V47.9106H125.837V47.0865H122.845V45.6793ZM132.327 46.2928L129.529 42.6686H128.679V47.9106H129.583V44.1814L132.462 47.9106H133.231V42.6686H132.327V46.2928ZM135.954 43.5218H137.61V47.9099H138.535V43.5218H140.193V42.6686H135.954V43.5218ZM143.833 45.6793H146.451V44.8552H143.833V43.4927H146.788V42.6686H142.915V47.9106H146.825V47.0865H143.833V45.6793ZM153.935 44.3388V44.3239C153.935 43.8672 153.778 43.4771 153.502 43.1934C153.166 42.8636 152.651 42.6686 151.994 42.6686H149.666V47.9106H150.584V46.0836H151.733L153.017 47.9106H154.106L152.695 45.9261C153.42 45.7169 153.935 45.1999 153.935 44.3388ZM150.584 45.2673V43.5069H151.919C152.599 43.5069 153.002 43.8147 153.002 44.3764V44.3906C153.002 44.9226 152.584 45.2673 151.927 45.2673H150.584ZM158.836 44.8701C157.828 44.6303 157.59 44.4509 157.59 44.0466V44.0317C157.59 43.687 157.903 43.4097 158.44 43.4097C158.918 43.4097 159.388 43.597 159.858 43.9488L160.351 43.2523C159.821 42.826 159.216 42.5941 158.455 42.5941C157.418 42.5941 156.672 43.2154 156.672 44.114V44.1289C156.672 45.0942 157.299 45.424 158.411 45.6942C159.381 45.9184 159.59 46.1212 159.59 46.495V46.5099C159.59 46.8992 159.231 47.1695 158.664 47.1695C158.023 47.1695 157.515 46.9219 157.015 46.4879L156.463 47.1468C157.09 47.7085 157.844 47.9851 158.642 47.9851C159.739 47.9851 160.508 47.4014 160.508 46.4198V46.4049C160.508 45.5368 159.941 45.1396 158.836 44.8701ZM161.149 21.674H161.141C160.317 21.674 159.66 22.3159 159.66 23.1159C159.66 23.933 160.317 24.5663 161.141 24.5663C161.973 24.5663 162.612 23.933 162.612 23.1159C162.612 22.3159 161.973 21.674 161.149 21.674ZM161.149 24.2677C160.501 24.2677 160.028 23.7571 160.028 23.1159C160.028 22.4826 160.501 21.9641 161.132 21.9641H161.141C161.78 21.9641 162.244 22.4826 162.244 23.1159C162.244 23.7571 161.78 24.2763 161.149 24.2677ZM161.474 23.1599V23.1422C161.648 23.089 161.771 22.9663 161.771 22.7989C161.771 22.667 161.71 22.5528 161.631 22.4918C161.526 22.4216 161.404 22.3776 161.132 22.3776C160.895 22.3776 160.711 22.4038 160.58 22.4301V23.8628H160.913V23.2918H161.071C161.255 23.2918 161.342 23.362 161.368 23.5202C161.412 23.6876 161.438 23.8103 161.482 23.8628H161.842C161.806 23.8188 161.78 23.7308 161.736 23.5117C161.693 23.3181 161.614 23.2039 161.474 23.1599ZM161.079 23.0542H160.922V22.6407C160.956 22.6322 161.018 22.6237 161.106 22.6237C161.316 22.6237 161.412 22.7109 161.412 22.8436C161.412 22.9925 161.264 23.0542 161.079 23.0542Z" fill="#fff"/>
</svg>
