<svg width="500" height="236" viewBox="0 0 500 236" fill="none" xmlns="http://www.w3.org/2000/svg">
<path d="M28.3347 138.925H53.5518C58.3315 138.925 62.7966 142.416 63.039 147.043H63.2686V128.03H28.3347L28.3177 94.6572H62.0226C66.8237 94.6572 71.293 98.1357 71.5439 102.75H71.765L71.731 83.7242L1 83.754V83.9623C5.76274 84.2217 9.3348 89.2651 9.3348 93.9768V181.403C9.3348 186.098 5.76274 191.162 1 191.43V191.634H36.6865V191.43C31.9196 191.162 28.3177 186.098 28.3177 181.403L28.3347 138.925Z" fill="#E60012"/>
<path d="M101.357 162.623C101.357 173.841 110.712 183.541 122.258 183.541C133.79 183.541 143.18 173.713 143.18 162.491V93.9755C143.18 89.2638 139.595 84.2204 134.819 83.961V83.7569L170.532 83.7229V83.961C165.765 84.2204 162.154 89.2638 162.154 93.9755V160.552C162.154 181.98 144.387 194.465 122.351 194.465C100.277 194.465 82.3187 181.98 82.3187 160.552L82.3655 93.9755C82.3655 89.2638 78.7637 84.2204 74.0222 83.961V83.7229H109.683V83.961C104.929 84.2459 101.34 89.2936 101.34 93.9755L101.357 162.623Z" fill="#E60012"/>
<path d="M393.148 101.197C387.165 91.5567 373.51 92.7176 373.51 92.7176C351.176 92.7176 352.231 109.706 352.231 109.706C352.231 109.706 350.696 118.228 361.918 124.041L384.248 135.871C405.803 147.404 403.248 163.793 403.248 163.793C403.248 163.793 404.221 194.411 359.141 194.411C359.141 194.411 346.044 194.81 338.627 192.038L332.283 172.209H332.504C339.372 182.083 359.324 183.507 359.324 183.507C384.656 182.398 384.83 165.235 384.83 165.235C384.83 165.235 385.97 157.844 376.053 152.49L353.83 140.664C330.629 128.302 333.286 111.654 333.286 111.654C333.286 111.654 332.738 81.5337 372.621 81.5337C372.621 81.5337 390.524 81.993 393.378 84.7783V101.197H393.148Z" fill="#E60012"/>
<path d="M219.142 46.2078C223.097 50.0775 228.617 52.4546 234.642 52.4546C246.783 52.4546 256.61 42.9036 256.61 31.0988C256.61 19.328 246.783 9.76004 234.642 9.76004C234.642 9.76004 217.73 8.19939 210.118 29.2405L210.144 13.4469C215.808 6.23901 224.577 0.999988 234.642 0.999988C251.771 0.999988 265.63 14.4632 265.63 31.0988C265.63 47.7089 251.771 61.2232 234.642 61.2232C226.086 61.2232 218.347 57.868 212.755 52.3951L202.098 40.7476C199.177 37.9112 195.158 36.1848 190.753 36.1848C181.878 36.1848 174.683 43.1588 174.683 51.7742C174.683 60.4237 181.878 67.4147 190.753 67.4147C190.753 67.4147 202.621 68.9626 210.118 54.6616L210.144 67.3084C205.551 72.726 198.539 76.1833 190.753 76.1833C176.898 76.1833 165.646 65.2545 165.646 51.7742C165.646 38.3195 176.898 27.4162 190.753 27.4162C197.654 27.4162 203.923 30.1123 208.473 34.5603L219.142 46.2078Z" fill="#E60012"/>
<path d="M224.852 93.7493C224.852 89.0333 221.263 84.2025 216.505 83.9601V83.756H252.136V83.9601C247.407 84.2238 243.801 89.0588 243.801 93.7493V181.362C243.801 186.066 247.407 191.126 252.136 191.407V191.607H216.505V191.407C221.263 191.126 224.852 186.066 224.852 181.362V93.7493Z" fill="#E60012"/>
<path d="M202.477 93.9772C202.477 89.2655 206.058 84.2221 210.82 83.9627V83.7543H175.134V83.9627C179.909 84.2221 183.473 89.2655 183.473 93.9772L183.503 203.508C183.503 203.508 183.103 222.848 167.522 233.976L167.56 234.189C170.635 233.687 202.503 227.806 202.503 197.023L202.477 93.9772Z" fill="#E60012"/>
<path d="M252.003 103.163H252.216C257.047 94.7563 264.497 94.6585 264.497 94.6585H283.816L283.829 181.404C283.829 186.099 280.235 191.125 275.477 191.406V191.606H311.21V191.406C306.413 191.125 302.807 186.065 302.807 181.404L302.833 94.6585L318.979 94.6202C323.882 94.6202 327.765 98.4219 327.905 103.163H328.101L334.033 83.7212H257.953L252.003 103.163Z" fill="#E60012"/>
<path d="M429.834 162.623C429.834 173.841 439.189 183.541 450.739 183.541C462.259 183.541 471.657 173.713 471.657 162.491V93.9755C471.657 89.2638 468.068 84.2204 463.313 83.961V83.7569L499 83.7229V83.961C494.267 84.2204 490.661 89.2638 490.661 93.9755V160.552C490.661 181.98 472.886 194.465 450.816 194.465C428.784 194.465 410.821 181.98 410.821 160.552L410.847 93.9755C410.847 89.2638 407.253 84.2204 402.486 83.961V83.7229H438.182V83.961C433.402 84.2459 429.808 89.2936 429.808 93.9755L429.834 162.623Z" fill="#E60012"/>
</svg>
