<svg id="hero-logo-badge-white" width="28" height="35" class="hero-badge" viewBox="0 0 28 35" fill="none" xmlns="http://www.w3.org/2000/svg" title="Hero Digital">
                        <path d="M9.65127 14.5396C9.60524 14.1758 9.57647 13.81 9.56505 13.4434C9.55833 13.2609 9.55385 13.0716 9.55385 12.8757V5.99694C9.55385 4.88837 9.47211 3.94329 9.30638 3.16281C9.14066 2.38234 8.84728 1.74519 8.42961 1.25361C8.00857 0.764272 7.44197 0.416025 6.7298 0.213347C6.01763 0.0129088 5.53165 -0.017325 4.43652 0.00730993H0V34.9933H3.26748C4.38837 35.0168 5.80711 34.9642 6.55736 34.7638C7.3076 34.56 7.90556 34.233 8.35122 33.7806C8.79689 33.3271 9.10818 32.7527 9.28735 32.0606C9.46539 31.3664 9.55273 30.5422 9.55273 29.5848V21.873C9.55273 21.6591 9.55609 21.4497 9.56393 21.2504C9.58073 20.7622 9.62216 20.3165 9.71062 19.9101C9.90434 19.2527 10.2392 18.6492 10.7789 18.2427C11.5314 17.7489 12.4932 17.5205 12.5649 17.497C12.5895 17.4896 12.6119 17.4764 12.6303 17.4585C12.6486 17.4405 12.6623 17.4184 12.6702 17.3939C12.6737 17.3797 12.6745 17.3648 12.6724 17.3503C12.669 17.3044 12.6343 17.2618 12.5671 17.2394C12.5224 17.2148 11.7128 17.1487 11.1842 16.8553C10.4463 16.4455 9.79684 15.7221 9.69382 14.8498L9.65127 14.5396ZM23.561 0.00842969C22.467 -0.0162052 21.981 0.0140285 21.2689 0.214467C20.5556 0.417145 19.9901 0.762033 19.5702 1.25473C19.1491 1.74631 18.8569 2.38346 18.6912 3.16393C18.5254 3.94441 18.4426 4.88949 18.4426 5.99806V12.8779C18.4424 13.289 18.4264 13.6999 18.3944 14.1097C18.272 14.9199 17.8906 15.6686 17.3071 16.2439C16.9309 16.6258 16.5378 16.9326 16.0261 17.0927C15.6667 17.2069 15.455 17.226 15.4293 17.2405C15.3988 17.2499 15.3716 17.2678 15.3509 17.292C15.3117 17.3357 15.3128 17.3973 15.3531 17.4454C15.371 17.4678 15.3979 17.4846 15.4326 17.4981C15.5222 17.5328 15.7831 17.6033 16.0429 17.7063C16.5378 17.8989 16.9062 18.124 17.2713 18.4857C17.8424 19.0534 18.2208 19.6727 18.3664 20.3826C18.409 20.7073 18.4291 21.0522 18.437 21.4195C18.4403 21.5684 18.4414 21.7207 18.4414 21.873V29.586C18.4414 30.5422 18.531 31.3675 18.7091 32.0618C18.8871 32.7538 19.1995 33.3282 19.6452 33.7806C20.0886 34.2341 20.6877 34.5611 21.4391 34.7649C22.1904 34.9653 23.608 35.0191 24.7278 34.9944H27.9975V0.00842969H23.561Z" fill="white"></path>
                    </svg>