
<svg width="257px" height="33px" viewBox="0 0 257 33" version="1.1" xmlns="http://www.w3.org/2000/svg" xmlns:xlink="http://www.w3.org/1999/xlink">
    <title>HHKB &amp; REALFORCE</title>
	<style type="text/css">
		.st0{fill:#000000;}
		.st1{fill:#C11920;}
		.st2{fill:#CF2027;}
	</style>
	<g>
		<rect x="22.9" y="7.2" class="st0" width="3.4" height="21.9"/>
		<rect x="6.3" y="7.2" class="st0" width="3.4" height="21.9"/>
		<path class="st1" d="M2.5,18.2c3.7,4.2,10.2,4.5,14.3,0.8l-1.4-1.5c-3.3,3-8.4,2.7-11.4-0.6c-1.5-1.7-2.3-4-2-6.2l-2.1-0.2
			C-0.3,13.2,0.6,16,2.5,18.2z"/>
		<path class="st1" d="M15.6,17.4l1.4,1.5c1.6-1.4,3.7-2.2,5.8-2.1c2.2,0.1,4.1,1.1,5.6,2.7c1.5,1.7,2.3,4,2,6.2l2.1,0.2
			c0.3-2.9-0.6-5.7-2.5-7.8c-1.8-2-4.3-3.2-7-3.3C20.3,14.5,17.7,15.5,15.6,17.4z"/>
		<rect x="14.6" y="7.2" class="st0" width="3.4" height="21.9"/>
		<path class="st0" d="M52.9,7.2c2.3,0,4.1,0.5,5.3,1.5c1.2,1,1.8,2.5,1.8,4.5c0,0.9-0.2,1.7-0.6,2.4c-0.4,0.7-1,1.3-1.7,1.7
			c1.1,0.3,1.9,0.9,2.5,1.9c0.6,0.9,0.9,2,0.9,3.3c0,1-0.2,2-0.6,2.9s-0.9,1.6-1.6,2.2c-0.7,0.6-1.4,1-2.2,1.2
			c-0.8,0.2-2,0.4-3.5,0.4h-5.1v-22H52.9z M51.3,26.2h2.5c1.5,0,2.5-0.3,3.2-0.8s1-1.4,1-2.5c0-1.2-0.4-2.2-1.1-2.8
			c-0.7-0.6-1.8-1-3.2-1h-2.5L51.3,26.2L51.3,26.2z M51.3,16.4h1c1.6,0,2.8-0.2,3.5-0.7s1-1.3,1-2.5c0-1-0.3-1.8-0.9-2.2
			c-0.6-0.5-1.6-0.7-2.9-0.7h-1.7V16.4z"/>
		<path class="st0" d="M33,21c0.7,1.6,0.9,3.3,0.8,5L33,25.9v3.3h3.2V7.2H33V21z"/>
		<polygon class="st0" points="48.4,7.2 44.6,7.2 36.3,18.2 44.2,29.2 48.2,29.2 39.9,18 	"/>
	</g>
	<g>
		<path class="st2" d="M124.2,29.7v-0.8c0.9-0.1,1.6-0.5,2.1-1.2c0.4-0.7,1.2-2.6,2.4-5.7l7.4-20.5h0.7l8.9,23.7
			c0.6,1.6,1.1,2.5,1.4,2.9c0.4,0.4,1,0.6,1.8,0.8v0.8h-9.1v-0.8c1-0.1,1.7-0.2,2-0.4s0.4-0.5,0.4-1.1c0-0.2-0.1-0.5-0.2-1.1
			c-0.1-0.5-0.3-1.1-0.5-1.6l-1.4-4l-4.6-13.3c-1,2.6-6.2,17.6-6.4,18.2s-0.3,1.1-0.3,1.5c0,0.7,0.2,1.2,0.8,1.5
			c0.3,0.2,0.9,0.3,1.7,0.4v0.8C131.3,29.7,124.2,29.7,124.2,29.7z"/>
		<path class="st0" d="M88.4,29c1.1-0.1,1.7-0.4,2-0.8c0.3-0.4,0.4-1.2,0.4-2.6V11.5c0-1.1-0.2-1.9-0.4-2.3c-0.3-0.4-1-0.6-1.9-0.7
			V7.9h7.7c1.6,0,3,0.2,4,0.7c2.1,0.9,3.1,2.6,3.1,5c0,1.6-0.4,2.9-1.3,3.8s-2.2,1.5-3.7,1.7l5.7,8.3c0.4,0.5,0.7,0.9,1.1,1.1
			c0.4,0.2,0.8,0.4,1.3,0.4v0.6h-4.5l-7-10l-1.2,0.1v6.5c0,1.2,0.2,2,0.5,2.3s1,0.5,2.1,0.6v0.6h-7.8L88.4,29L88.4,29z M97.9,17.8
			c1.5-0.7,2.2-2.1,2.2-4s-0.6-3.2-2-3.9c-0.7-0.4-1.7-0.5-2.8-0.5c-0.8,0-1.3,0.1-1.5,0.2c-0.2,0.2-0.3,0.4-0.3,0.9v8.1
			C95.6,18.4,97.1,18.1,97.9,17.8"/>
		<path class="st0" d="M107.5,29c1-0.1,1.7-0.3,2-0.6s0.5-1.1,0.5-2.3V11.5c0-1.2-0.2-1.9-0.4-2.3c-0.3-0.4-1-0.6-2-0.6V8h14.8
			l0.1,4.7h-0.7c-0.2-1.5-0.6-2.4-1.1-2.8s-1.5-0.6-3.1-0.6h-3.8c-0.4,0-0.6,0.1-0.8,0.2c-0.1,0.2-0.2,0.4-0.2,0.9v7.3h4.3
			c1.2,0,1.9-0.2,2.3-0.6c0.3-0.4,0.6-1.2,0.8-2.5h0.6v7.6h-0.6c-0.2-1.3-0.5-2.1-0.8-2.5s-1.1-0.6-2.3-0.6h-4.3v8.2
			c0,0.6,0.2,1,0.5,1.1s1.4,0.2,3.1,0.2c1.9,0,3.3-0.3,4.2-0.8s1.7-1.7,2.4-3.6h0.8l-1.3,5.7h-15.1V29H107.5z"/>
		<path class="st0" d="M150.6,29c1-0.1,1.7-0.3,2-0.6s0.4-1.1,0.4-2.3V11.5c0-1.2-0.2-1.9-0.4-2.3c-0.3-0.4-1-0.6-2-0.6V8h7.9v0.6
			c-1,0.1-1.7,0.3-2.1,0.6c-0.4,0.3-0.5,1-0.5,2.2v15.8c0,0.4,0.1,0.6,0.2,0.9c0.1,0.2,0.3,0.3,0.7,0.4c0.2,0.1,0.4,0.1,0.6,0.1
			c0.2,0,0.6,0,1.3,0c2.5,0,4.2-0.2,5-0.7s1.7-1.7,2.5-3.7h0.7l-1.3,5.7h-15L150.6,29L150.6,29z"/>
		<path class="st0" d="M167.9,29c1.1-0.2,1.8-0.4,2.1-0.7s0.4-1.2,0.4-2.6V11.5c0-1.2-0.2-1.9-0.4-2.3c-0.3-0.4-1-0.6-2-0.6V8h14.8
			l0.1,4.7h-0.8c-0.2-1.5-0.5-2.4-1.1-2.9c-0.5-0.4-1.6-0.6-3.1-0.6h-3.8c-0.4,0-0.6,0.1-0.7,0.2s-0.2,0.4-0.2,0.9v7.3h4
			c1.2,0,1.9-0.2,2.3-0.6c0.3-0.4,0.6-1.2,0.8-2.5h0.6v7.6h-0.6c-0.2-1.3-0.5-2.1-0.8-2.5s-1.1-0.6-2.3-0.6h-4v7.2
			c0,1.2,0.2,2,0.5,2.3s1,0.5,2.1,0.6v0.6H168L167.9,29L167.9,29z"/>
		<path class="st0" d="M187.5,10.5c1.7-1.9,3.8-2.9,6.3-2.9s4.6,1,6.4,2.9c1.8,2.1,2.8,4.9,2.8,8.4c0,3.6-1,6.4-2.9,8.5
			c-1.7,1.9-3.8,2.8-6.3,2.8c-2.6,0-4.8-1-6.5-3.1s-2.6-4.9-2.6-8.2C184.7,15.4,185.6,12.5,187.5,10.5 M189.5,26.5
			c1.1,1.7,2.6,2.5,4.3,2.5s3.1-0.8,4.2-2.4c1.2-1.6,1.8-4.2,1.8-7.7s-0.6-6.2-1.8-7.8c-1.2-1.6-2.6-2.4-4.2-2.4
			c-1.7,0-3.1,0.8-4.3,2.5s-1.7,4.2-1.7,7.7S188.4,24.8,189.5,26.5"/>
		<path class="st0" d="M204.3,29c1.1-0.1,1.7-0.4,2-0.8c0.3-0.4,0.4-1.2,0.4-2.6V11.5c0-1.1-0.2-1.9-0.4-2.3c-0.3-0.4-1-0.6-1.9-0.7
			V7.9h7.7c1.6,0,3,0.2,4,0.7c2.1,0.9,3.1,2.6,3.1,5c0,1.6-0.4,2.9-1.3,3.8c-0.9,0.9-2.2,1.5-3.7,1.7l5.7,8.3
			c0.4,0.5,0.7,0.9,1.1,1.1c0.4,0.2,0.8,0.4,1.3,0.4v0.6h-4.5l-7-10l-1.2,0.1v6.5c0,1.2,0.2,2,0.5,2.3s1,0.5,2.1,0.6v0.6h-7.8V29
			H204.3z M213.8,17.8c1.5-0.7,2.2-2.1,2.2-4s-0.6-3.2-2-3.9c-0.7-0.4-1.7-0.5-2.8-0.5c-0.8,0-1.3,0.1-1.5,0.2
			c-0.2,0.2-0.3,0.4-0.3,0.9v8.1C211.5,18.4,213,18.1,213.8,17.8"/>
		<path class="st0" d="M235,8.1c1.1,0.4,1.7,0.5,1.8,0.5c0.3,0,0.5-0.1,0.8-0.3c0.2-0.2,0.4-0.4,0.5-0.8h0.6l0.3,7.3h-0.6
			c-0.4-1.5-0.9-2.6-1.5-3.6c-1.1-1.7-2.7-2.5-4.6-2.5s-3.6,0.9-4.8,2.7c-1.2,1.8-1.8,4.3-1.8,7.5c0,2.9,0.6,5.3,1.9,7
			c1.3,1.7,3,2.6,5,2.6c1.5,0,2.8-0.4,4-1.2c0.7-0.5,1.5-1.1,2.3-2.1l0.5,0.6c-0.6,0.9-1.4,1.7-2.3,2.4c-1.6,1.2-3.2,1.8-5.1,1.8
			c-3,0-5.4-1.1-7.1-3.4c-1.6-2.1-2.4-4.7-2.4-7.8c0-3.2,0.9-5.9,2.6-8c1.8-2.3,4.2-3.4,7.1-3.4C232.9,7.6,234,7.8,235,8.1"/>
		<path class="st0" d="M241,29c1-0.1,1.7-0.3,2-0.6s0.4-1.1,0.4-2.3V11.5c0-1.2-0.2-1.9-0.4-2.3c-0.3-0.4-1-0.6-2-0.6V8h14.8l0.1,4.7
			h-0.7c-0.2-1.5-0.6-2.4-1.1-2.8s-1.5-0.6-3.1-0.6h-3.8c-0.4,0-0.6,0.1-0.8,0.2c-0.1,0.2-0.2,0.4-0.2,0.9v7.3h4.3
			c1.2,0,1.9-0.2,2.3-0.6c0.3-0.4,0.6-1.2,0.8-2.5h0.6v7.6h-0.6c-0.2-1.3-0.5-2.1-0.8-2.5s-1.1-0.6-2.3-0.6h-4.3v8.2
			c0,0.6,0.2,1,0.5,1.1s1.4,0.2,3.1,0.2c1.9,0,3.3-0.3,4.2-0.8c0.9-0.5,1.7-1.7,2.4-3.6h0.8l-1.2,5.6h-15.1L241,29L241,29z"/>
	</g>
	<rect x="73.8" y="5.8" class="st0" width="1" height="25.8"/>
</svg>