<svg version="1.1" id="Layer_1" xmlns="http://www.w3.org/2000/svg" xmlns:xlink="http://www.w3.org/1999/xlink" x="0px" y="0px"
	 viewBox="0 0 115 54" style="enable-background:new 0 0 115 54;" xml:space="preserve">
<style type="text/css">
	.st0{fill:#29B79D;}
	.st1{fill:#FFFFFF;}
	.st2{fill:#A1BBBE;}
</style>
<g>
	<path class="st0" d="M81.4,47.9c-2.8,0-4.5-1.2-4.5-3c0-1.6,1.6-2.3,2.2-2.5c1.1-0.2,2.2-0.2,3.3-0.2c3,0,3.7,1.6,3.7,2.5
		C86.2,46.7,84.3,47.9,81.4,47.9 M81.7,21.7c2.1,0,3.5,1.5,3.5,3.7c0,2.1-1.4,3.7-3.5,3.7c-2,0-3.6-1.5-3.6-3.7
		C78.1,23.2,79.6,21.7,81.7,21.7 M84.2,37.2l-6.5,0c-1.1,0-2-0.7-2-1.7c0-1.2,1.2-1.9,1.9-1.9c0.8,0,2.1,0.4,4.1,0.4
		c5.4,0,8.7-4,8.7-8c0-3.6-2-5.2-2-5.2l2.9-0.9c0.4-0.1,0.6-0.5,0.6-0.9l0-1.7c0-0.6-0.4-1-1-1l-9.3,0c-5.1,0-8.9,4.1-8.9,8.9
		c0,3.1,1.5,4.8,1.5,4.8s-3.8,1.7-3.8,5.7c0,3.7,3,5.1,3.8,5.4v0.2c-0.5,0.3-3.1,1.8-3.1,4.9c0,3.3,2.9,7,10.4,7
		c7.4,0,11.2-4,11.2-8.7C92.7,39.9,88.9,37.2,84.2,37.2"/>
	<path class="st1" d="M6.5,16.9l-4.2,0c-0.4,0-0.7,0.3-0.7,0.7l0,18.9c0,0.4,0.3,0.7,0.7,0.7l4.2,0c0.4,0,0.7-0.3,0.7-0.7l0-18.9
		C7.2,17.2,6.8,16.9,6.5,16.9"/>
	<path class="st1" d="M4.3,6.9c-1.7,0-3,1.4-3,3.1c0,1.7,1.3,3,3,3c1.7,0,3.1-1.3,3.1-3C7.4,8.3,6,6.9,4.3,6.9"/>
	<path class="st1" d="M22.7,16.2c-3.9,0-6.4,2.2-7.2,3l-0.7-1.9c-0.2-0.4-0.4-0.6-0.9-0.6l-1.9,0c-0.5,0-1,0.4-1,1l0,18.5
		c0,0.5,0.5,1,1,1l3.8,0c1,0,1.3-0.3,1.3-1l0-11.2c0.5-1.4,2.2-3.2,4.8-3.2c2.5,0,3.8,1.7,3.8,4.3l0,10.1c0,0.5,0.4,1,1,1l4.2,0
		c0.5,0,1-0.5,1-1l0-9.8C31.8,21,29.2,16.2,22.7,16.2"/>
	<path class="st0" d="M104,32.2c-2.8,0-4.9-2.4-4.9-5.3c0-2.9,2.2-5.2,4.9-5.2c2.7,0,4.9,2.3,4.9,5.2
		C108.9,29.8,106.7,32.2,104,32.2 M104,16.2c-5.8,0-10.5,4.9-10.5,10.7c0,5.9,4.7,10.8,10.5,10.8c5.8,0,10.5-4.9,10.5-10.8
		C114.5,21.2,109.8,16.2,104,16.2"/>
	<path class="st1" d="M66.8,16.8l-4.2,0c-0.4,0-0.7,0.3-0.7,0.7l0,18.9c0,0.4,0.3,0.7,0.7,0.7l4.2,0c0.4,0,0.7-0.3,0.7-0.7l0-18.9
		C67.6,17.1,67.2,16.8,66.8,16.8"/>
	<path class="st1" d="M64.7,6.8c-1.7,0-3,1.4-3,3.1c0,1.7,1.3,3,3,3c1.7,0,3.1-1.3,3.1-3C67.8,8.2,66.4,6.8,64.7,6.8"/>
	<path class="st1" d="M48.5,28.4c-0.4,1.2-1.6,3.3-4.3,3.3c-2.7,0-4.7-2.4-4.6-5.2c0-2.9,2.1-5.2,5-5.2c2.6,0,4,1.2,4,1.2L48.5,28.4
		z M58.8,31.7l-0.5,0h0c-2.3,0-3.7-1.7-3.7-4.4l-0.1-4.5l0-20.9c0-0.5-0.5-1-1-1l-4.3,0c-0.5,0-1,0.5-1,1l0,14.8
		c-0.9-0.4-2.5-0.9-4.6-0.9c-6.1,0-10.1,4.7-10.1,10.7c0,5.9,4.2,10.7,9.8,10.7c4.3,0,6.9-3.3,6.9-3.3l0,0c1.3,1.8,3.3,3.1,6.2,3.3
		c0,0,0,0,0,0c0,0,0,0,0,0c0.2,0,1.6,0,1.8,0h0.4c0.5,0,0.9-0.4,0.9-0.9l0-3.9C59.6,32,59.3,31.7,58.8,31.7"/>
	<path class="st2" d="M111,44.2l-14.8,0c0,0.1,0,0.3,0,0.4c0,1.6-0.3,3-0.9,4.4c0.1,0,0.1,0,0.2,0l15.5,0c0.4,0,0.7-0.3,0.7-0.7
		l0-3.4C111.7,44.6,111.4,44.2,111,44.2"/>
	<path class="st2" d="M67.6,46.3c0-0.7,0.1-1.4,0.3-2c-0.1,0-0.2-0.1-0.3-0.1L1.2,44.1c-0.4,0-0.7,0.3-0.7,0.7l0,3.4
		c0,0.4,0.3,0.7,0.7,0.7L67.6,49c0.2,0,0.3-0.1,0.4-0.1C67.7,48,67.6,47.1,67.6,46.3"/>
</g>
</svg>
