
<svg xmlns="http://www.w3.org/2000/svg" xmlns:xlink="http://www.w3.org/1999/xlink" width="181.769" height="45.952" viewBox="0 0 181.769 45.952">
  <defs>
    <style>
      .cls-1 {
        fill: none;
      }

      .cls-2 {
        clip-path: url(#clip-path);
      }

      .cls-3 {
        fill: #2470b8;
      }

      .cls-4 {
        fill: #75777b;
      }
    </style>
    <clipPath id="clip-path">
      <rect id="Rectangle_920" data-name="Rectangle 920" class="cls-1" width="181.769" height="45.952"/>
    </clipPath>
  </defs>
  <g id="Group_507" data-name="Group 507" transform="translate(0 0)">
    <g id="Group_506" data-name="Group 506" class="cls-2" transform="translate(0 0)">
      <path id="Path_354" data-name="Path 354" class="cls-3" d="M182.7,34.564h6.2V45.575h.082a7.111,7.111,0,0,1,6.035-2.724c4.77,0,8.236,3.828,8.2,9.749,0,6.946-4.528,10.418-9.093,10.418a6.634,6.634,0,0,1-5.995-3.118h-.082l-.245,2.684h-5.259c.081-1.263.162-3.592.162-5.761Zm6.2,19.811a4.349,4.349,0,0,0,.121,1.067,3.772,3.772,0,0,0,3.631,2.841c2.65,0,4.282-1.973,4.282-5.446,0-3-1.388-5.368-4.282-5.368a3.814,3.814,0,0,0-3.631,2.961,4.923,4.923,0,0,0-.121,1.106Z" transform="translate(-92.181 -17.455)"/>
      <path id="Path_355" data-name="Path 355" class="cls-3" d="M248.76,65.286c0,2.526.082,4.578.162,6.2h-5.381l-.287-2.724h-.121a7.168,7.168,0,0,1-6.24,3.157c-4.077,0-7.013-2.448-7.013-8.406V52.183h6.2V62.564c0,2.8.938,4.5,3.141,4.5a3.285,3.285,0,0,0,3.1-2.092,3.124,3.124,0,0,0,.246-1.3V52.183h6.2Z" transform="translate(-116.087 -26.352)"/>
      <rect id="Rectangle_918" data-name="Rectangle 918" class="cls-3" width="6.198" height="19.298" transform="translate(137.647 25.832)"/>
      <rect id="Rectangle_919" data-name="Rectangle 919" class="cls-3" width="6.198" height="28.02" transform="translate(148.82 17.11)"/>
      <path id="Path_356" data-name="Path 356" class="cls-3" d="M328.308,41.58v5.249h4.444v4.42h-4.444v7.024c0,2.329.612,3.394,2.447,3.394a7.9,7.9,0,0,0,1.835-.157l.041,4.538a13.443,13.443,0,0,1-4,.514,6.747,6.747,0,0,1-4.688-1.659c-1.142-1.144-1.712-3-1.712-5.722V51.25h-2.65v-4.42h2.65V43.2Z" transform="translate(-161.385 -20.998)"/>
      <path id="Path_357" data-name="Path 357" class="cls-4" d="M.979,57.644a12.855,12.855,0,0,0,6.6,1.812c3.788,0,6-1.895,6-4.738,0-2.554-1.532-4.079-5.406-5.478C3.49,47.591.6,45.2.6,41.329c0-4.325,3.7-7.54,9.281-7.54a13.181,13.181,0,0,1,6.3,1.36l-1.022,2.926a10.874,10.874,0,0,0-5.408-1.319c-3.915,0-5.406,2.265-5.406,4.16,0,2.6,1.748,3.873,5.706,5.356,4.851,1.856,7.278,4.079,7.278,8.158,0,4.284-3.235,8.034-10,8.034A15.186,15.186,0,0,1,0,60.651Z" transform="translate(0 -17.063)"/>
      <path id="Path_358" data-name="Path 358" class="cls-4" d="M47.744,53.739l-2.98,8.734H40.933l9.748-27.768h4.47l9.791,27.768H60.982l-3.066-8.734Zm9.408-2.8L54.3,42.945c-.6-1.814-1.022-3.461-1.448-5.068h-.129c-.382,1.607-.849,3.337-1.4,5.026l-2.809,8.034Z" transform="translate(-20.671 -17.526)"/>
      <path id="Path_359" data-name="Path 359" class="cls-4" d="M97.86,34.7h15.453v3.009H101.607v9.228H112.42v2.965H101.607V62.473H97.86Z" transform="translate(-49.418 -17.526)"/>
      <path id="Path_360" data-name="Path 360" class="cls-4" d="M154.6,49.454H143.486V59.466h12.431v3.007H139.74V34.7h15.537v3.007H143.486v8.776H154.6Z" transform="translate(-70.567 -17.526)"/>
      <path id="Path_361" data-name="Path 361" class="cls-3" d="M354.511,83.589a3.142,3.142,0,1,1,3.14,3.04,3.1,3.1,0,0,1-3.14-3.04m5.514,0a2.375,2.375,0,1,0-2.374,2.45,2.368,2.368,0,0,0,2.374-2.45m-3.583-1.735h1.322c.852,0,1.314.287,1.314,1.012,0,.589-.348.875-.931.925L359.1,85.3h-.679l-.922-1.481h-.4V85.3h-.662Zm.662,1.474h.583c.391,0,.73-.052.73-.513,0-.405-.382-.473-.723-.473h-.59Z" transform="translate(-179.024 -40.677)"/>
      <path id="Path_362" data-name="Path 362" class="cls-4" d="M277.742,23.517l-6.517-9.925h3.281l3.282,5.03L289.841,0l3.281.044Z" transform="translate(-136.965 0)"/>
    </g>
  </g>
</svg>
