
<svg width="227" height="34" fill="none" xmlns="http://www.w3.org/2000/svg"><g clip-path="url(#a)"><path d="M12.69 18.54a3.924 3.924 0 00-.78-.63 8.74 8.74 0 00-1.19-.63c-.49-.2-.995-.361-1.51-.48a8.42 8.42 0 00-1.77-.19 4.39 4.39 0 00-2.68.7 2.32 2.32 0 00-.91 2 2 2 0 00.3 1.14 2.3 2.3 0 00.88.76c.466.248.96.443 1.47.58.59.17 1.28.35 2.06.55.78.2 1.78.51 2.56.78.716.224 1.39.562 2 1a4.13 4.13 0 011.27 1.49 4.64 4.64 0 01.46 2.19 5.331 5.331 0 01-.56 2.54 4.71 4.71 0 01-1.52 1.7 6.67 6.67 0 01-2.2 1c-.878.207-1.778.311-2.68.31a13.61 13.61 0 01-4.21-.66 12.277 12.277 0 01-3.66-1.91l1.39-2.57c.306.29.641.547 1 .77.476.313.981.577 1.51.79.623.255 1.265.463 1.92.62.71.17 1.44.254 2.17.25a4.779 4.779 0 002.66-.63 2.25 2.25 0 00.6-3 2.911 2.911 0 00-1-.84 8.524 8.524 0 00-1.63-.64 224.97 224.97 0 00-2.19-.6 23.685 23.685 0 01-2.51-.91 6.198 6.198 0 01-1.75-1 3.82 3.82 0 01-1.06-1.38 4.55 4.55 0 01-.36-1.91 5.61 5.61 0 01.52-2.48 5.24 5.24 0 011.44-1.82 6.461 6.461 0 012.21-1.12 9.422 9.422 0 012.7-.37 10.071 10.071 0 013.6.61c1.016.375 1.975.89 2.85 1.53l-1.4 2.46zm23.19 11.89v2.65h-13v-19h12.76v2.64h-9.8v5.41h8.49v2.49h-8.49v5.81h10.04zM46.8 19.69v13.39h-3v-19h2.36l10.87 13.71V14.1h3v19h-2.49L46.8 19.69zm36.07-3h-6.32v16.39h-3V16.72H67.2v-2.65h15.67v2.62zm7.15 16.36v-19h3v19h-3zm25.26-2.65v2.65h-13v-19h12.79v2.67h-9.83v5.41h8.48v2.49h-8.48v5.81l10.04-.03zm10.91-10.74v13.42h-3v-19h2.36l10.87 13.71V14.1h3v19h-2.48l-10.75-13.44zm36.07-3h-6.32v16.42h-3V16.72h-6.34v-2.65h15.66v2.59z" fill="#828182"/><path d="M174.34 23.73c0 1.3 0 2.49-.14 3.52a8.068 8.068 0 01-.61 2.54 3.261 3.261 0 01-1.26 1.49 4.37 4.37 0 01-2.29.51 6.863 6.863 0 01-2-.27 5.466 5.466 0 01-1.52-.69l-.33-.23-.67 1.72.21.14a7.44 7.44 0 004.31 1.24 6.629 6.629 0 003.35-.74 5.058 5.058 0 001.93-2.09 9.355 9.355 0 00.85-3.15c.12-1.2.19-2.54.19-4v-10h-2l-.02 10.01zm8.79.54h9.67v-1.83h-9.67v-6.82h11.06v-1.88h-13.07V33.4h13.31v-1.88h-11.3v-7.25zm13.44-10.53v1.88h6.96V33.4h2.02V15.62h6.96v-1.88h-15.94z" fill="#003E51"/><path d="M209.79 6.1a50.128 50.128 0 005.73-1.19 4.78 4.78 0 012.55-.05 4.69 4.69 0 013.38 3.38 4.777 4.777 0 01-.05 2.55 39.593 39.593 0 00-1.36 8c0 6.32 3.13 9.41 6.27 9.41V.02c-8.47 0-10.18 5.06-16.52 6.08z" fill="url(#b)"/><path d="M209.79 6.1c-.62.08-1.22.14-1.78.16a13.997 13.997 0 001.78-.16z" fill="#6B8039"/><path d="M198.08.02c0 3.14 3.09 6.27 9.41 6.27h.52c.56 0 1.16-.08 1.78-.16 6.34-1 8-6.1 16.52-6.1L198.08.02z" fill="#828182"/></g><defs><linearGradient id="b" x1="218.05" y1="26.63" x2="218.05" y2="8.32" gradientUnits="userSpaceOnUse"><stop stop-color="#00A9D1"/><stop offset=".25" stop-color="#008CAE"/><stop offset=".76" stop-color="#00546B"/><stop offset="1" stop-color="#003E51"/></linearGradient><clipPath id="a"><path fill="#fff" d="M0 0h226.31v33.7H0z"/></clipPath></defs></svg>