<svg width="1194" height="633" viewBox="0 0 1194 633" fill="none" xmlns="http://www.w3.org/2000/svg">
<path d="M736.158 87.915C736.142 87.877 736.131 87.833 736.12 87.795C736.098 87.806 736.077 87.817 736.06 87.828L736.158 87.915ZM731.241 75.592C730.377 77.103 729.584 78.493 728.682 80.069C729.448 80.504 730.774 81.058 731.806 81.917C732.588 82.564 732.991 83.607 733.561 84.476C733.828 84.351 734.094 84.221 734.355 84.095C733.958 84.774 733.844 84.834 733.062 86.187C734.453 85.687 734.746 86.1 735.48 85.833C735.692 86.49 735.904 87.143 736.121 87.794C736.975 87.376 737.838 86.957 739.023 86.376C738.561 92 742.506 89.278 744.664 89.321C746.978 91.299 747.935 92.059 749.45 94.477C749.254 94.689 749.065 94.907 748.874 95.118C747.826 95.14 746.782 95.162 745.538 95.189C745.907 95.976 746.022 97.036 746.467 97.069C749.51 97.275 747.749 100.1 745.631 101.356C748.619 101.958 750.89 102.42 752.858 102.818C751.472 104.116 750.245 102.399 747.723 108.208C753.63 105.176 752.39 108.523 754.384 107.627C758.134 105.942 767.245 106.127 768.326 104.09C768.348 104.046 768.342 103.759 768.348 103.427C767.631 103.139 766.86 102.829 766.131 102.536C767.234 96.135 762.936 94.212 760.345 96.706C756.389 90.403 749.147 88.382 743.121 84.192C743.083 83.871 742.828 82.969 742.871 82.079C743.028 79.243 741.361 78.324 738.774 78.764C735.731 79.281 734.71 78.574 736.655 75.471C734.376 75.521 732.578 75.559 731.241 75.592ZM814.201 138.371C814.174 140.197 815.635 141.696 818.423 142.995C818.472 141.099 816.38 139.159 815.13 135.899C815.201 137.605 814.212 137.588 814.201 138.371ZM722.716 95.653C722.607 95.978 723.047 97.093 722.939 97.418C724.618 98.347 724.466 98.461 726.139 99.396C726.628 100.129 726.829 101.673 726.443 103.14C725.954 105.014 726.427 105.829 726.948 106.177C727.774 106.731 729.382 106.758 730.463 106.106C732.62 104.802 735.799 101.711 739.461 98.358C738.625 94.375 736.267 92.843 734.767 91.436C734.924 90.979 735.251 90.051 735.277 89.969C733.837 88.746 732.691 87.773 731.55 86.801C729.241 87.41 726.807 88.768 725.073 91.088C724.72 91.588 726.877 91.756 725.409 93.664C724.488 94.474 724.128 94.957 722.716 95.653ZM731.464 86.725C731.491 86.752 731.523 86.78 731.55 86.801C731.561 86.801 731.567 86.801 731.573 86.795C731.567 86.795 731.464 86.725 731.464 86.725ZM591.99 505.892C597.005 504.029 600.624 501.893 606.52 502.708C607.573 500.964 611.198 499.268 614.153 499.692C617.234 499.893 620.576 501.594 623.592 500.833C626.863 499.116 630.65 497.866 632.302 494.568C634.649 493.144 637.811 492.052 639.49 490.161C643.272 484.891 646.923 482.593 649.733 477.398C651.036 475.279 651.542 472.877 652.384 470.693C633.682 470.503 614.979 470.372 596.277 470.372C560.47 470.372 524.658 470.742 488.856 471.448C488.715 471.774 488.584 472.1 488.524 472.432C488.22 474.166 488.394 475.263 488.328 477.567C488.649 480.865 488.133 484.212 487.649 487.526C487.366 489.526 487.149 491.553 486.611 493.514C485.807 496.437 483.997 499.23 485.301 502.376C485.442 502.724 485.53 503.316 485.301 503.517C483.101 505.419 484.345 507.549 484.932 509.445C486.936 515.955 483.557 521.752 481.367 527.599C480.856 528.963 478.693 527.908 480.818 531.321C482.508 534.037 483.747 536.933 482.307 540.107C482.28 541.025 482.03 542.753 482.763 543.91C483.551 545.149 482.807 544.882 482.731 545.252C482.241 547.947 483.035 548.621 485.219 548.833V544.41C485.573 544.334 485.893 543.878 486.719 544.747C487.447 549.241 486.502 547.464 487.73 553.664C486.632 552.827 486.095 551.034 485.285 549.719C484.899 549.311 483.851 549.642 483.845 550.061C483.813 553.044 484.72 553.739 484.595 554.347C484.16 556.445 483.726 555.978 482.71 558.048C482.862 559.449 485.318 558.347 486.122 558.851C486.606 559.156 486.421 560.21 486.536 560.932C485.546 560.905 485.014 560.997 484.835 561.253C484.525 561.688 485.242 562.346 485.465 562.845C488.6 569.909 493.186 573.278 493.186 573.278C501.739 580.059 503.629 580.793 510.927 582.721C517.132 584.362 516.539 582.83 516.708 582.515C516.817 582.319 515.784 582.053 513.796 580.569C511.633 578.961 512.628 578.619 510.346 577.548L506.374 575.457C507.634 575.533 509.498 576.386 509.564 575.941C508.983 575.109 507.282 573.832 506.825 571.8C507.597 571.658 508.721 571.317 509.488 571.176C510.108 570.758 509.884 569.975 509.803 568.926C510.857 568.307 513.057 567.074 513.911 566.242C514.177 565.915 514.166 565.031 514.058 564.129C511.33 562.64 507.401 563.064 508.156 560.01C508.694 559.113 511.721 559.151 513.318 558.662C513.552 557.907 514.172 557.037 513.965 556.336C513.22 553.44 516.785 553.94 519.469 553.228C518.698 552.413 518.225 551.391 517.546 551.288C513.802 550.707 513.357 550.31 513.754 546.594C516.395 547.892 519.122 548.436 522.105 548.61C523.263 548.676 523.746 548.301 523.317 547.001C522.572 544.763 524.947 543.078 527.69 543.378C530.945 543.737 534.238 544.002 537.52 544.074C540.09 544.128 544.513 541.531 544.86 539.689C545.035 538.781 543.85 538.95 543.54 538.482C542.926 537.574 542.85 536.515 543.16 536.113C543.85 535.228 544.073 534.304 543.926 534.146C542.921 533.053 540.959 531.858 539.753 530.739C539.753 530.739 539.046 529.984 538.927 529.625C538.802 529.267 539.97 528.793 540.128 528.707C540.519 528.478 541.682 530.576 541.889 530.69C542.53 531.038 544.139 530.853 545.176 532C547.697 534.782 550.93 533.418 553.506 534.776C553.869 534.967 554.69 534.814 555.136 534.586C560.331 532.043 565.047 529.962 569.801 526.865C571.22 526.229 567.003 526.202 566.182 526.202C572.126 523.115 570.317 522.328 570.812 522.274C572.388 522.105 574.713 521.643 574.713 522.513C570.86 525.506 572.36 525.078 572.192 525.099C572.051 525.099 573.23 525.147 574.702 523.887C577.8 521.252 580.625 518.687 584.532 516.954C586.325 516.155 587.428 514.949 587.357 512.808C587.263 509.978 588.191 507.18 591.99 505.892ZM659.262 111.698C661.61 113.469 661.403 113.415 663.408 109.753C662.81 109.231 663.364 108.938 663.093 108.634C662.452 108.716 661.24 109.166 660.05 109.318C660.637 107.878 662.767 107.601 661.794 106.911C661.462 106.661 658.996 107.693 657.849 108.014C657.751 107.862 657.653 107.71 657.556 107.552C658.582 106.884 661.272 105.661 661.006 105.313C660.908 104.998 659.142 105.661 657.007 104.498C657.333 103.563 658.903 102.047 659.289 100.972C655.388 99.777 651.634 98.63 647.395 97.331C648.286 96.826 648.601 96.641 648.922 96.462C648.84 96.261 648.77 96.06 648.694 95.859C646.983 95.653 643.956 96.256 642.066 96.022C642.68 94.61 642.473 92.551 647.885 91.838C647.01 91.507 647.738 90.252 647.407 90.127C644.016 90.219 640.805 91.469 639.202 91.686C633.322 94.952 627.063 100.048 628.97 101.26C630.35 103.612 636.289 102.781 639.778 103.862C643.516 105.02 646.918 105.867 650.982 107.02C651.145 107.362 648.51 107.786 646.695 107.753C646.25 107.905 646.022 108.389 646.733 108.573C649.776 108.693 653.216 108.388 656.536 107.889C657.628 108.965 655.933 109.644 655.672 110.41C656.465 110.562 657.112 110.758 657.677 110.97C658.628 110.623 658.845 109.791 659.177 109.998C660.127 110.666 658.953 111.447 659.262 111.698ZM617.071 92.224C617.196 91.953 617.321 91.686 617.44 91.414C614.12 88.192 609.654 86.182 606.041 86.828C608.404 88.453 612.018 90.876 617.071 92.224ZM590.756 632.184L590.648 631.875L590.533 632.184H590.756ZM582.758 25.994C585.094 26.179 590.935 28.103 590.207 24.576C587.876 24.706 585.252 23.19 582.758 25.994ZM822.216 155.106C822.259 155.313 822.738 155.329 822.993 155.427C823.64 153.471 824.628 154.607 824.428 153.27C824.085 151.042 821.847 147.13 818.918 144.233C818.326 145.211 817.222 146.266 817.468 146.771C818.863 149.624 821.379 150.944 822.216 155.106ZM856.176 483.81C855.758 483.799 855.366 484.016 855.127 484.358C796.841 560.385 705.78 610.096 590.649 610.129C590.687 610.129 590.725 610.129 590.763 610.129L590.649 610.445L590.529 610.129C590.572 610.129 590.605 610.129 590.649 610.129C475.511 610.097 384.45 560.385 326.17 484.358C325.925 484.016 325.534 483.798 325.116 483.81C324.496 483.832 324.067 484.348 324.089 484.962C324.095 485.131 324.132 485.294 324.208 485.435C380.212 573.47 478.602 631.875 590.648 631.875C702.688 631.875 801.085 573.47 857.089 485.435C857.16 485.294 857.198 485.131 857.204 484.962C857.223 484.348 856.795 483.832 856.176 483.81ZM590.197 24.5C590.203 24.527 590.203 24.549 590.208 24.576C590.23 24.576 590.257 24.576 590.278 24.576C590.273 24.57 590.197 24.5 590.197 24.5ZM306.842 181.334C307.26 181.334 307.629 181.095 307.826 180.753C325.159 149.782 348.306 122.055 375.881 98.728C374.871 100.239 373.92 101.798 373.029 103.401C370.274 107.486 367.975 111.747 366.237 116.273C366.112 116.555 366.297 117.061 366.525 117.338C368.057 119.196 367.481 121.169 366.563 123.276C365.177 126.455 363.716 129.601 362.374 132.796C361.304 135.344 360.428 137.849 361.189 140.729C361.934 143.533 360.125 145.777 356.87 147.037C357.082 148.369 356.816 149.994 357.582 151.015C360.304 154.65 358.956 157.562 356.104 160.388C356.104 161.073 355.68 161.866 356.104 162.437C357.772 164.659 361.227 166.778 360.01 169.202C360.77 170.006 363.112 164.893 361.841 163.6C360.417 162.155 361.047 160.986 361.423 159.644C365.938 149.918 361.662 138.247 368.986 129.499C371.246 130.689 370.04 137.28 366.834 141.295C367.094 141.616 367.709 142.137 367.698 142.317C367.389 146.767 370.676 151.26 367.53 155.683C368.132 160.677 370.431 162.986 370.355 169.18C370.361 171.663 368.975 174.586 368.486 176.048C367.752 178.243 367.524 182.438 367.578 185.22C377.696 184.796 387.812 184.416 397.93 184.046C398.054 182.182 399.434 179.808 399.434 176.695C399.434 174.652 399.537 172.875 400.173 171.299C401.732 167.463 403.438 164.969 405.362 161.252C405.726 160.546 406.514 159.856 407.302 159.514C409.139 158.721 409.661 157.444 409.699 155.776C409.742 153.695 411.058 151.326 412.943 149.326C413.497 148.739 414.204 149.011 414.839 148.5C415.48 147.989 416.045 146.696 416.724 146.299C417.838 145.652 418.979 145.18 420.082 144.952C422.625 144.425 425.483 144.017 426.831 141.36C427.266 141.523 427.847 141.957 428.222 141.844C431.938 140.724 435.395 141.366 438.801 142.816C438.893 142.854 439.355 142.218 439.588 141.963C440.582 142.995 441.386 144.533 442.653 144.946C443.284 145.152 443.897 145.12 444.527 144.968C445.125 144.821 445.196 144.593 445.967 144.424C446.663 144.277 447.087 144.191 447.934 144.805C448.108 144.978 448.874 145.745 449.021 145.962C449.021 145.962 449.32 145.918 449.77 145.478C450.021 145.212 449.417 144.229 449.401 144.088C449.352 143.734 449.797 143.631 450.069 143.392C451.189 142.746 450.303 141.224 450.596 141.099C452.416 140.93 457.59 139.518 458.203 140.257C459.979 142.533 462.295 140.806 464.066 141.539C465.637 142.186 467.717 142.947 468.44 144.115C469.466 145.778 470.662 146.017 472.107 145.403C475.139 144.121 476.155 144.876 477.155 147.549C477.302 147.94 477.601 148.326 477.938 148.614C479.405 149.879 479.383 150.255 478.628 151.737C477.345 154.253 477.41 157.823 478.123 160.518C478.868 163.338 481.453 166.668 480.411 168.532C481.172 169.575 483.443 168.814 484.361 168.722C484.752 168.678 485.301 168.64 485.301 168.64C485.546 166.585 488.577 163.619 489.034 160.941C490.153 154.975 487.442 147.579 491.017 142.238C492.778 140.141 495.542 138 498.325 137.381C503.558 136.224 507.497 131.882 513.365 132.458C515.452 130.643 517.44 129.942 521.624 130.019C522.347 130.029 523.607 129.475 523.591 129.416C523.135 127.688 524.765 127.889 525.704 127.672C528.872 126.938 530.263 124.156 528.856 121.391C528.302 118.837 529.313 116.811 530.067 114.36C530.301 113.567 531.176 113.414 531.415 113.838C531.415 115.327 530.6 117.652 531.415 118.641C531.062 119.016 531.084 119.641 530.415 120.353C530.676 120.532 530.535 121.325 531.192 120.891C532.746 117.848 538.408 118.206 536.674 112.876C536.957 112.724 537.239 112.572 537.522 112.42C538.082 113.099 539.663 113.463 539.673 115.017C541.395 115.321 542.537 112.224 543.33 111.561C543.971 111.018 546.101 110.653 547.204 109.181C548.209 109.181 549.606 108.736 551.008 109.181C551.605 109.371 554.007 109.181 555.583 109.181C555.827 109.045 555.882 108.887 555.594 108.773C554.529 108.632 552.943 108.561 552.404 108.355C551.681 108.078 550.937 107.947 550.165 107.844C550.497 107.29 549.698 107.073 549.719 106.894C555.322 106.416 558.092 108.649 568.346 108.567C568.509 107.774 566.276 107.627 565.629 107.084C565.112 106.65 564.667 105.487 564.96 105.058C567.351 101.57 573.344 99.782 578.18 100.369C582.087 100.722 588.325 100.972 590.128 99.576C594.519 99.619 599.485 98.82 599.599 100.244C597.149 101.2 594.758 101.461 592.438 101.966C591.715 102.123 590.928 102.868 590.655 103.503C590.47 103.927 591.123 104.655 591.46 105.221C592.427 106.856 594.003 106.53 595.47 106.024C602.229 103.655 609.298 104.731 616.291 104.829C618.318 104.927 617.036 104.166 617.35 103.857C621.105 104.341 621.018 103.085 624.126 103.569C624.561 103.363 624.246 103.135 624.311 102.912C623.588 102.32 622.866 101.722 622.208 101.179C622.398 100.478 621.507 100.309 622.762 99.146C623.452 98.114 622.61 98.076 622.029 98.429C619.611 99.668 617.198 100.907 614.683 102.2C613.895 101.944 612.923 101.586 611.966 101.26C612.428 101.145 612.885 101.031 613.373 100.906C610.341 98.901 605.869 100.493 604.185 96.407C603.691 96.673 603.131 97.591 602.593 97.635C601.468 96.602 600.637 95.276 600.24 93.522C601.441 92.908 602.609 92.315 604.038 91.593C601.604 91.311 599.648 91.082 597.697 90.854C597.746 90.637 597.795 90.414 597.85 90.197C599.991 90.197 602.142 90.284 604.278 90.149C604.962 90.105 606.065 89.534 606.136 89.094C606.228 88.556 605.565 87.676 605 87.355C602.799 86.095 601.273 85.817 599.643 85.698C590.026 85.323 582.147 87.176 574.464 89.002C577.388 87.546 585.913 84.595 589.298 84.052C590.58 83.851 592.297 84.161 593.096 83.525C595.547 81.585 598.291 81.715 600.986 82.313C607.496 83.764 613.988 85.307 620.394 87.084C624.676 88.269 628.724 88.757 633.017 87.132C635.169 86.317 637.309 86.453 639.488 86.795C640.732 86.589 642.748 87.48 644.629 86.926C645.894 86.556 647.752 86.144 648.992 85.062C649.839 84.323 649.606 82.986 649.893 82.003C642.71 78.732 641.945 78.107 643.449 76.569C638.472 74.493 631.273 72.613 628.626 68.392C626.083 64.327 626.73 62.659 626.73 62.659C624.632 60.22 619.367 55.563 617.454 52.775C612.069 55.677 605.756 58.703 599.752 54.476C597.052 52.737 595.307 49.966 597.969 47.195C595.198 46.081 592.106 46.217 589.873 43.158C588.765 41.648 586.336 40.74 584.385 40.18C580.049 39.137 575.513 38.436 571.133 37.996C570.742 38.105 570.514 38.192 570.285 38.485C570.16 38.686 570.052 38.957 569.986 39.164C570.138 39.566 570.247 40.213 570.138 40.474C569.807 41.49 569.078 41.506 567.584 41.761C568.953 43.316 567.986 43.483 568.725 44.446C568.192 45.027 564.058 46.598 562.454 46.625C562.275 46.941 562.09 47.256 561.911 47.571C564.107 48.272 567.122 50.744 566.986 53.537C565.889 58.444 555.423 58.08 551.158 58.628C549.843 65.376 550.419 67.936 541.725 68.175C541.333 68.223 540.687 67.697 540.426 67.295C539.464 65.833 539.382 64.665 538.589 63.127C538.356 62.681 538.317 61.937 538.584 61.54C539.763 59.785 540.078 57.796 541.436 55.965C535.334 53.954 527.874 54.373 524.033 48.488C521.811 47.098 514.024 44.631 511.123 43.728C511.71 42.761 512.454 41.533 513.302 40.126C512.226 39.485 508.851 37.703 508.851 37.703C511.481 35.068 516.986 29.667 535.612 26.01C542.029 24.978 548.506 24.119 555.048 23.451C552.304 24.217 549.669 24.885 548.235 26.277C548.371 26.146 549.197 28.961 550.397 29.091C552.184 29.281 554.51 28.168 556.352 28.14C559.623 28.482 562.943 29.411 566.241 29.873C564.16 26.521 560.068 26.336 558.797 23.098C568.621 22.196 578.57 21.706 588.638 21.652C589.349 22.397 590.138 23.026 591.105 23.483L591.028 23.412C591.794 23.564 592.566 23.722 593.441 23.901C593.029 24.151 592.659 24.373 591.757 24.923C593.24 25.244 594.571 25.928 595.066 25.574C597.804 23.629 597.331 25.933 597.984 27.302C595.262 27.638 592.795 27.948 590.307 28.258C590.469 28.921 590.584 29.372 590.812 30.317C588.008 29.887 585.542 29.545 583.091 29.11C580.69 28.686 578.255 27.763 575.44 30.241C577.158 30.637 578.298 31.099 579.466 31.143C585.563 31.371 591.263 32.408 595.327 37.272C595.783 37.815 596.283 38.478 596.913 38.707C602.184 40.489 607.345 42.69 612.844 43.755C612.985 43.495 613.122 43.238 613.263 42.977C611.523 41.592 609.785 40.195 608.052 38.81L608.351 38.402C611.502 40.13 614.648 41.858 618.246 43.83C616.767 40.489 619.859 41.461 621.446 40.206C618.62 38.538 616.04 37.114 613.6 35.506C612.943 35.071 612.671 34.093 612.323 33.321C612.302 33.267 613.302 32.588 613.567 32.68C621.071 35.358 622.875 37.912 624.109 37.575C629.168 36.184 631.4 35.603 631.27 34.994C629.091 32.918 619.571 29.539 613.28 26.768L613.345 26.252C614.503 26.334 615.655 26.415 616.986 26.507C615.894 24.203 614.133 22.905 611.699 22.275C621.436 22.856 631.042 23.862 640.519 25.242C639.758 25.545 637.764 27.632 637.08 27.686C636.346 27.746 635.503 27.35 634.868 27.572C633.814 27.936 632.287 28.468 632.054 29.229C631.706 30.365 631.929 31.989 632.602 32.984C635.292 36.63 639.677 39.064 642.692 42.422C645.458 45.633 648.865 47.498 653.146 48.133C657.02 48.834 660.231 50.665 664.008 52.083C665.328 49.654 666.491 48.617 667.523 46.72C667.409 46.715 666.73 44.9 666.616 44.895C667.844 43.748 669.92 43.737 670.615 42.352C671.457 40.684 672.3 39.847 674.256 40.222C678.37 41.015 682.667 41.157 686.276 39.288C688.422 38.31 690.976 37.723 693.6 37.375C711.346 42.977 728.386 49.992 744.566 58.272C744.267 62.685 741.333 62.37 741.355 63.103C741.371 63.722 744.957 65.162 745.218 67.787C745.43 68.771 745.218 69.45 745.533 69.618C749.271 71.585 749.108 70.797 752.178 74.177C752.656 74.704 753.917 74.231 754.259 74.807C756.019 77.731 761.399 79.355 762.431 74.845C762.393 74.432 763.806 73.856 763.312 73.41C764.784 74.719 768.126 76.958 770.087 77.018C771.587 77.061 776.167 80.332 777.145 82.065C777.373 82.478 779.373 83.668 779.172 84.347C779.031 84.831 776.396 85.037 775.934 85.434C773.847 84.689 774.679 83.304 773.576 82.162C771.815 81.124 769.962 80.239 768.126 79.283C766.61 81.147 767.767 82.875 770.109 84.402C773.375 86.771 775.944 89.449 779.264 92.041C778.867 92.459 777.286 92.286 776.097 92.812C775.537 93.062 776.032 93.627 775.586 93.937C774.897 94.415 773.831 94.899 774.07 95.1C777.977 97.225 776.183 98.431 775.906 99.643C775.037 98.649 774.162 96.834 773.564 97.307C775.259 101.931 774.896 100.507 771.575 104.077C771.265 104.604 772.781 106.175 773.167 106.853C772.325 108.212 771.629 109.336 770.754 110.754C769.233 110.504 766.673 109.222 765.261 109.846C765.293 110.775 767.532 112.291 768.635 113.476C765.625 115.084 761.734 112.178 759.588 115.655C761.11 117.905 763.311 118.399 765.902 118.264C766.951 118.209 768.174 118.372 769.064 118.856C772.487 120.519 776.633 123.067 777.818 124.41C779.198 125.964 779.882 130.246 783.887 135.94C776.781 136.613 770.39 137.961 764.076 137.581C760.012 137.336 761.24 138.798 760.137 139.602C758.974 140.455 757.208 139.357 757.648 141.161C757.806 141.824 759.376 142.389 759.773 142.9C764.076 148.42 767.206 153.821 766.723 160.994C766.576 163.222 767.75 163.395 768.473 163.493C770.837 163.808 771.076 165.493 771.668 166.992C772.146 168.204 772.456 169.475 772.956 171.072C774.645 170.746 776.623 170.898 777.732 170.046C780.02 168.291 781.427 169.084 783.084 170.67C784.431 171.969 785.045 172.48 787.088 174.202C788.397 176.082 791.087 169.54 798.314 168.763C801.058 168.464 801.15 164.867 801.134 162.58C800.519 159.846 802.248 156.576 798.896 154.418C798.412 154.109 798.558 152.832 798.542 152.006C798.52 149.919 798.39 147.311 799.982 145.73C802.178 143.872 803.91 141.52 800.999 139.183C799.803 138.341 799.265 136.178 799.749 135.07C801.803 133.473 805.237 135.239 807.573 135.705C808.594 135.917 808.279 133.331 808.768 132.353C809.214 131.467 809.86 130.804 810.393 130C813.332 130.653 815.473 133.092 817.484 135.124C820.054 137.722 822.695 140.286 825.547 142.595C831.72 147.474 839.082 150.648 841.386 158.7C839.272 159.114 836.702 158.119 835.686 159.733C835.713 159.814 835.724 159.912 835.746 160.004C835.724 160.037 835.698 160.053 835.676 160.086C835.915 160.836 835.904 161.9 836.437 162.281C838.725 163.911 841.169 165.335 843.555 166.835C843.431 166.102 843.268 165.411 843.099 164.732C842.794 163.412 842.469 162.151 842.442 160.809C842.442 160.559 842.448 160.304 842.469 160.048C842.469 160.004 842.469 159.966 842.474 159.929C842.507 159.587 842.561 159.233 842.648 158.875C842.708 158.619 842.751 158.342 842.784 158.055C843.088 156.109 842.631 153.496 840.105 151.931C839.241 151.398 839.04 149.91 838.588 148.785L838.811 148.66C839.838 149.383 840.87 150.1 841.903 150.817L842.571 150.018C842.56 150.007 842.549 149.996 842.538 149.991C842.604 149.914 842.663 149.838 842.729 149.768C839.257 146.763 836.132 143.21 832.172 140.976C827.95 138.982 825.967 135.146 822.761 132.32C819.354 130.131 816.529 127.164 815.741 123.594C816.094 123.138 816.529 122.377 816.958 122.644C822.185 125.894 826.152 130.566 831.151 133.761C836.085 136.266 840.383 139.048 842.985 143.992C844.218 146.34 846.49 148.225 848.37 150.246C850.201 152.213 854.238 152.881 855.286 155.136C856.721 158.217 859.253 159.727 861.742 161.657C865.887 167.878 869.816 174.235 873.467 180.75C873.657 181.092 874.027 181.331 874.445 181.331C875.065 181.331 875.565 180.826 875.565 180.212C875.565 180.043 875.527 179.88 875.461 179.739C824.63 73.535 716.198 0.187012 590.645 0.187012C465.086 0.187012 356.654 73.535 305.823 179.739C305.758 179.881 305.72 180.044 305.72 180.212C305.723 180.829 306.222 181.334 306.842 181.334ZM1133.96 350.1C1133.96 311.071 1133.96 272.047 1133.96 233.018C1122.38 231.872 1110.79 230.758 1099.2 229.682C1099.26 279.073 1099.32 328.459 1099.38 377.85C1130.85 380.768 1162.3 383.963 1193.73 387.435V356.366C1173.82 354.165 1153.89 352.079 1133.96 350.1ZM186.243 280.367C208.564 308.42 230.891 336.61 253.228 364.935C253.364 365.109 253.5 365.277 253.641 365.451C263.117 364.848 272.599 364.272 282.08 363.723C282.08 314.343 282.08 264.957 282.08 215.571C270.468 216.244 258.863 216.957 247.251 217.706V300.248C226.696 274.238 206.152 248.342 185.607 222.565C185.471 222.396 185.33 222.227 185.194 222.06C173.941 222.918 162.694 223.804 151.446 224.733V372.885C163.041 371.929 174.642 371.011 186.242 370.136L186.243 280.367ZM636.779 237.664V206.59C599.14 206.318 561.502 206.433 523.864 206.937C523.919 256.323 523.979 305.704 524.033 355.089C561.905 354.578 599.772 354.464 637.644 354.752V323.466C611.171 323.265 584.694 323.26 558.221 323.45V295.136C576.005 295.005 593.789 294.967 611.573 295.016V263.73C593.789 263.681 576.004 263.718 558.221 263.849V237.659C584.405 237.474 610.594 237.474 636.779 237.664ZM311.102 213.968C311.162 263.348 311.221 312.729 311.281 362.108C322.893 361.5 334.509 360.924 346.126 360.386V212.235C334.45 212.773 322.773 213.355 311.102 213.968ZM757.909 299.77C771.286 295.19 786.424 283.974 786.424 256.307C786.424 227.982 770.732 209.159 743.195 208.41C716.75 207.698 690.305 207.181 663.86 206.856V355.007C675.368 355.148 686.877 355.328 698.39 355.54V302.807C706.411 302.954 714.425 303.122 722.445 303.307C732.757 321.124 743.065 338.968 753.372 356.845C766.517 357.225 779.66 357.649 792.804 358.122C781.176 338.636 769.542 319.184 757.909 299.77ZM730.594 272.645C719.804 272.379 709.007 272.145 698.216 271.944V238.458C709.007 238.659 719.804 238.893 730.594 239.159C746.678 239.56 749.998 248.814 749.998 256.415C749.998 264.022 746.76 273.047 730.594 272.645ZM923.606 319.689C923.606 289.152 892.314 277.677 869.46 268.255C863.488 265.788 857.844 263.462 853.431 261.12C853.431 261.114 853.425 261.114 853.425 261.114C845.943 257.197 842.308 252.736 842.308 248.959C842.308 243.65 847.225 239.537 858.538 240.08C881.092 241.151 905.457 255.75 912.384 260.217C913.074 260.657 913.77 261.103 914.465 261.548V226.496C914.215 226.349 913.971 226.203 913.726 226.061C902.538 219.514 878.615 209.429 858.538 208.478C832.326 207.201 805.87 219.595 805.87 249.545C805.87 283.483 836.369 293.28 860.858 303.218C866.384 305.457 871.594 307.576 875.947 309.782C883.5 313.515 887.015 317.655 887.015 321.872C887.015 332 879.185 337.031 862.336 334.912C848.165 333.136 830.826 325.664 809.864 312.347C809.163 311.901 808.467 311.461 807.772 311.021V346.073C808.001 346.214 808.234 346.355 808.468 346.496C815.287 350.648 839.331 364.313 862.337 365.448C901.279 367.369 923.606 350.916 923.606 319.689ZM88.037 319.238C88.037 340.364 80.147 351.785 61.684 353.605C43.22 355.436 35.342 345.575 35.342 324.449V235.529C23.649 236.746 11.962 237.996 0.273987 239.289V328.796C0.273987 369.972 20.775 389.342 61.684 385.266C102.599 381.245 123.154 357.816 123.148 316.641V227.134C111.444 228.155 99.74 229.22 88.036 230.318C88.037 259.958 88.037 289.598 88.037 319.238ZM470.202 207.904C458.46 239.141 446.718 270.417 434.976 301.731C423.239 271.113 411.497 240.539 399.761 210.001C386.786 210.474 373.811 210.99 360.835 211.556C381.157 260.061 401.478 308.686 421.8 357.42C426.195 357.278 430.586 357.143 434.977 357.012C439.372 356.882 443.763 356.757 448.158 356.637C468.485 306.686 488.812 256.855 509.144 207.132C496.163 207.345 483.183 207.6 470.202 207.904ZM1005.59 221.82C1000.4 221.428 995.209 221.043 990.02 220.667C968.889 268.526 947.752 316.511 926.611 364.613C939.004 365.369 951.398 366.162 963.787 366.998C967.509 357.929 971.226 348.86 974.948 339.798C995.378 341.222 1015.8 342.759 1036.22 344.416C1039.93 354.039 1043.65 363.668 1047.37 373.295C1059.75 374.328 1072.12 375.398 1084.49 376.512C1063.39 325.22 1042.28 274.057 1021.15 223.014C1015.96 222.608 1010.78 222.211 1005.59 221.82ZM987.265 309.811C993.373 294.945 999.48 280.089 1005.59 265.245C1011.7 281.013 1017.8 296.787 1023.9 312.572C1011.7 311.61 999.48 310.691 987.265 309.811ZM189.069 402.82C182.842 397.701 174.92 396.022 167.041 396.598C159.168 397.174 151.24 400.016 145.019 406.042C139.031 411.839 134.592 420.588 134.592 432.992C134.598 445.402 139.026 453.449 145.019 458.329C151.235 463.393 159.174 465.039 167.041 464.464C174.914 463.888 182.841 461.084 189.069 455.102C195.051 449.354 199.49 440.654 199.496 428.244C199.496 415.838 195.051 407.742 189.069 402.82ZM167.042 450.874C153.648 451.852 148.997 441.305 148.997 431.878C148.997 422.456 153.649 411.176 167.042 410.192C180.436 409.214 185.081 419.815 185.081 429.237C185.086 438.67 180.424 449.896 167.042 450.874ZM265.379 411.169C265.379 398.188 257.425 392.516 246.731 393.151C235.467 393.825 224.198 394.526 212.934 395.265V459.522C217.786 459.207 222.638 458.892 227.49 458.587V434.407C230.413 434.222 233.337 434.043 236.265 433.864C241.101 441.623 245.942 449.393 250.778 457.169C256.45 456.837 262.123 456.511 267.795 456.19C262.595 447.861 257.385 439.531 252.184 431.212C259.054 428.556 265.384 422.743 265.379 411.169ZM237.369 421.379C234.049 421.58 230.734 421.787 227.414 421.998V406.85C231.956 406.562 236.493 406.279 241.036 406.008C248.366 405.568 250.154 408.377 250.154 412.05C250.159 418.26 247.117 420.786 237.369 421.379ZM327.959 440.521C316.864 441.031 305.774 441.569 294.689 442.14C294.683 424.921 294.683 407.707 294.689 390.488C289.832 390.738 284.979 390.993 280.127 391.254V455.517C296.069 454.654 312.011 453.86 327.959 453.126V440.521ZM356.342 438.909C365.144 438.55 373.948 438.208 382.749 437.887C384.574 442.147 386.4 446.412 388.22 450.672C393.317 450.493 398.413 450.319 403.505 450.151C394.317 429.031 385.123 407.937 375.929 386.866C371.675 387.023 367.421 387.192 363.166 387.36C353.978 409.149 344.785 430.953 335.591 452.78C340.687 452.557 345.779 452.334 350.875 452.122C352.697 447.717 354.522 443.315 356.342 438.909ZM369.546 407.057C372.154 413.262 374.757 419.462 377.36 425.667C372.154 425.863 366.943 426.064 361.739 426.276C364.341 419.87 366.943 413.463 369.546 407.057ZM427.402 385.149C422.946 385.279 418.497 385.415 414.046 385.551C414.04 406.97 414.04 428.389 414.046 449.808C418.898 449.656 423.756 449.515 428.613 449.373V409.556C439.372 422.52 450.13 435.512 460.889 448.531C464.6 448.443 468.317 448.362 472.027 448.28V384.023C467.175 384.126 462.323 384.235 457.476 384.354V420.96C447.446 408.997 437.427 397.06 427.402 385.149ZM487.927 383.702V447.966C495.947 447.813 503.972 447.678 511.997 447.558C527.478 447.325 544.522 439.077 544.512 415.087C544.506 391.092 527.472 383.067 511.997 383.301C503.972 383.42 495.952 383.556 487.927 383.702ZM529.581 415.244C529.575 424.188 525.06 434.479 511.998 434.669C508.847 434.713 505.701 434.761 502.549 434.816C502.549 421.986 502.549 409.163 502.549 396.335C505.695 396.286 508.852 396.238 511.998 396.188C525.038 396.005 529.575 406.306 529.581 415.244ZM587.901 380.833C580.017 380.843 572.073 383.121 565.836 388.701C559.826 394.074 555.382 402.508 555.387 414.912C555.392 427.322 559.832 435.684 565.836 440.988C572.068 446.498 580.012 448.709 587.901 448.693C595.796 448.677 603.734 446.438 609.972 440.906C615.971 435.581 620.421 427.197 620.416 414.787C620.421 402.382 615.971 393.971 609.972 388.619C603.734 383.061 595.79 380.817 587.901 380.833ZM587.901 435.103C574.485 435.13 569.818 424.252 569.818 414.82C569.812 405.404 574.491 394.455 587.901 394.422C601.333 394.401 605.973 405.333 605.979 414.755C605.978 424.188 601.316 435.081 587.901 435.103ZM720.949 403.021C720.949 390.034 712.994 383.753 702.284 383.568C691.004 383.367 679.719 383.205 668.439 383.074V447.332C673.296 447.386 678.154 447.451 683.011 447.522V423.337C685.945 423.381 688.875 423.424 691.803 423.473C696.644 431.607 701.491 439.752 706.332 447.896C712.011 447.999 717.694 448.114 723.372 448.234C718.161 439.496 712.951 430.77 707.74 422.049C714.618 419.919 720.943 414.589 720.949 403.021ZM692.906 411.073C689.586 411.018 686.26 410.97 682.941 410.921V395.772C687.489 395.837 692.037 395.908 696.579 395.984C703.92 396.104 705.707 399.054 705.707 402.727C705.702 408.938 702.676 411.226 692.906 411.073ZM786.504 398.151V385.638C770.247 385.122 753.995 384.676 737.733 384.291C737.76 405.715 737.787 427.135 737.814 448.554C754.229 448.939 770.638 449.391 787.048 449.913V437.307C775.48 436.937 763.906 436.606 752.338 436.307V422.565C760.228 422.772 768.122 422.989 776.018 423.228V410.622C768.123 410.389 760.228 410.165 752.338 409.959V397.163C763.727 397.461 775.115 397.787 786.504 398.151ZM823.132 397.58C832.907 397.944 843.453 404.437 846.458 406.421C846.762 406.622 847.061 406.817 847.36 407.018V392.544C847.257 392.484 847.148 392.424 847.045 392.365C842.208 389.61 831.82 385.394 823.126 385.068C811.765 384.639 800.31 390.05 800.305 403.015C800.299 417.713 813.525 421.891 824.132 426.075C826.528 427.021 828.788 427.912 830.668 428.841C833.939 430.417 835.461 432.509 835.465 434.329C835.465 438.714 832.081 441.305 824.772 440.453C818.627 439.736 811.117 436.47 802.032 430.575C801.728 430.379 801.429 430.184 801.13 429.994V444.8C801.228 444.86 801.331 444.925 801.429 444.985C804.38 446.767 814.807 452.624 824.772 453.01C841.643 453.656 851.331 446.343 851.326 432.83C851.326 419.615 837.764 414.872 827.858 410.9C825.267 409.856 822.821 408.878 820.909 407.879C817.671 406.217 816.095 403.977 816.09 402.342C816.09 400.041 818.225 397.395 823.132 397.58ZM918.866 397.262C912.639 391.377 904.701 388.721 896.823 388.323C888.944 387.927 881.006 389.785 874.768 395.039C868.775 400.097 864.324 408.296 864.335 420.702C864.335 433.112 868.774 441.708 874.768 447.326C880.994 453.162 888.933 455.787 896.823 456.189C904.696 456.58 912.635 454.76 918.866 449.548C924.87 444.533 929.309 436.389 929.298 423.978C929.293 411.574 924.854 402.93 918.866 397.262ZM896.823 442.594C883.413 441.925 878.756 430.798 878.756 421.37C878.756 411.948 883.413 401.244 896.823 401.912C910.238 402.597 914.873 413.768 914.878 423.19C914.873 432.618 910.237 443.274 896.823 442.594ZM997.205 415.179C997.211 402.199 989.272 395.537 978.568 394.852C967.299 394.129 956.035 393.44 944.766 392.776V457.033C949.618 457.321 954.47 457.609 959.323 457.908V433.723C962.251 433.902 965.175 434.087 968.098 434.267C972.939 442.629 977.776 450.997 982.611 459.375C988.284 459.739 993.956 460.12 999.623 460.505C994.418 451.523 989.218 442.553 984.018 433.592C990.88 431.779 997.211 426.753 997.205 415.179ZM969.201 421.923C965.887 421.711 962.572 421.51 959.252 421.303V406.154C963.788 406.432 968.332 406.714 972.874 407.002C980.198 407.464 981.991 410.507 981.986 414.175C981.985 420.385 978.959 422.531 969.201 421.923ZM1009.1 409.503C1015.73 409.965 1022.36 410.437 1028.99 410.921V462.572C1033.77 462.92 1038.56 463.273 1043.34 463.632V411.888C1049.98 412.389 1056.61 412.899 1063.24 413.421V400.907C1045.2 399.489 1027.15 398.153 1009.1 396.898V409.503Z" fill="white"/>
</svg>
