<svg width="167" height="40" viewBox="0 0 167 40" fill="none" xmlns="http://www.w3.org/2000/svg">
<path fill-rule="evenodd" clip-rule="evenodd" d="M77.1948 32.56V30.16H68.3435L77.1948 17.2V15.04H65.4498V17.44H73.8755L65.1094 30.24V32.56H77.1948ZM91.3227 27.04V26C91.3227 22.4 89.195 19.92 85.6205 19.92C82.131 19.92 79.9182 22.24 79.9182 26.32C79.9182 31.04 82.6417 32.72 85.9609 32.72C88.344 32.72 89.6206 32.08 90.9823 30.8L89.2801 29.28C88.344 30.16 87.4929 30.56 86.046 30.56C83.8332 30.56 82.6417 29.2 82.6417 27.04H91.3227V27.04ZM88.6844 25.28H82.6417C82.6417 24.48 82.7268 24.16 82.9821 23.6C83.4077 22.64 84.3439 22 85.7056 22C86.9822 22 87.9184 22.64 88.344 23.6C88.5993 24.16 88.5993 24.56 88.6844 25.28ZM105.876 32.56V24.56C105.876 23.12 105.536 22 104.515 21.04C103.749 20.32 102.557 19.92 101.195 19.92C99.8336 19.92 98.557 20.4 97.6208 21.36V20.08H94.9824V32.56H97.7059V24.96C97.7059 23.04 98.9825 22.16 100.514 22.16C102.046 22.16 103.238 22.96 103.238 24.96V32.56H105.876ZM120.515 32.56V15.04H117.791V21.36C116.77 20.24 115.664 19.92 114.217 19.92C112.855 19.92 111.664 20.32 110.983 21.04C109.706 22.24 109.451 24.24 109.451 26.32C109.451 28.4 109.706 30.4 110.983 31.6C111.749 32.32 112.94 32.72 114.302 32.72C115.749 32.72 116.855 32.4 117.877 31.28V32.64H120.515V32.56ZM117.791 26.32C117.791 28.56 117.451 30.48 114.983 30.48C112.515 30.48 112.174 28.56 112.174 26.32C112.174 24.08 112.515 22.16 114.983 22.16C117.451 22.16 117.791 24.08 117.791 26.32ZM134.302 21.12C133.366 20.24 132.345 19.92 131.068 19.92C129.536 19.92 128.175 20.56 127.494 21.44V20.08H124.855V32.56H127.579V24.96C127.579 23.2 128.77 22.16 130.302 22.16C131.239 22.16 131.749 22.4 132.345 22.96L134.302 21.12ZM139.239 20.08H136.515V32.56H139.239V20.08ZM139.239 14.96H136.345V17.6H139.239V14.96ZM153.707 20.08H150.813L147.664 28.88L144.43 20.08H141.537L146.473 32.56H148.686L153.707 20.08ZM166.559 27.04V26C166.559 22.4 164.431 19.92 160.856 19.92C157.367 19.92 155.154 22.24 155.154 26.32C155.154 31.04 157.877 32.72 161.197 32.72C163.58 32.72 164.856 32.08 166.218 30.8L164.516 29.28C163.58 30.16 162.729 30.56 161.282 30.56C159.069 30.56 157.877 29.2 157.877 27.04H166.559V27.04ZM163.835 25.28H157.792C157.792 24.48 157.877 24.16 158.133 23.6C158.558 22.64 159.495 22 160.856 22C162.133 22 163.069 22.64 163.495 23.6C163.75 24.16 163.835 24.56 163.835 25.28Z" fill="#151D45"/>
<path fill-rule="evenodd" clip-rule="evenodd" d="M34.4705 23.5201C34.4705 28.4801 32.8534 34.0801 27.832 40.0001C51.7475 39.6001 51.0666 17.8401 51.0666 17.8401C51.0666 17.8401 41.4494 17.2801 34.4705 23.5201Z" fill="#00CC9B"/>
<path fill-rule="evenodd" clip-rule="evenodd" d="M25.7029 8.15991C25.7029 8.15991 9.02171 22.9599 25.7029 39.9999C42.3842 22.9599 25.7029 8.15991 25.7029 8.15991Z" fill="#00CC9B"/>
<path fill-rule="evenodd" clip-rule="evenodd" d="M16.8534 23.6801C9.8745 17.2801 0.00193668 17.8401 0.00193668 17.8401C0.00193668 17.8401 -0.678929 39.7601 23.4918 40.0001C18.6407 34.1601 16.8534 28.6401 16.8534 23.6801Z" fill="#00CC9B"/>
<path fill-rule="evenodd" clip-rule="evenodd" d="M16.9369 21.92C17.3624 18.56 18.5539 15.6 19.9156 13.12C16.0007 10.48 12.0006 9.52002 12.0006 9.52002C12.0006 9.52002 9.78775 12.96 8.85156 17.52C11.4899 18.4 14.2985 19.76 16.9369 21.92Z" fill="#00CC9B"/>
<path fill-rule="evenodd" clip-rule="evenodd" d="M31.3203 13.12C35.2353 10.48 39.2354 9.52002 39.2354 9.52002C39.2354 9.52002 41.4482 12.96 42.3844 17.52C39.746 18.4 36.8524 19.76 34.2991 21.92C33.8736 18.56 32.682 15.6 31.3203 13.12Z" fill="#00CC9B"/>
<path fill-rule="evenodd" clip-rule="evenodd" d="M25.6205 4.72C26.9822 4.72 28.0886 3.68 28.0886 2.4C28.0886 1.12 26.9822 0 25.6205 0C24.2588 0 23.1523 1.04 23.1523 2.32C23.1523 3.6 24.2588 4.72 25.6205 4.72Z" fill="#00CC9B"/>
</svg>
