<svg width="758" height="655" viewBox="0 0 758 655" fill="none" xmlns="http://www.w3.org/2000/svg">
<path d="M758 0H0V655H758V0Z" fill="#08192D"/>
<path opacity="0.0514323" fill-rule="evenodd" clip-rule="evenodd" d="M400.975 464.543C310.929 501.809 207.722 459.021 170.457 368.976C133.191 278.929 175.979 175.723 266.024 138.457C356.071 101.192 459.278 143.978 496.543 234.025C533.809 324.071 491.022 427.277 400.975 464.543Z" fill="#F3F3F3"/>
<path fill-rule="evenodd" clip-rule="evenodd" d="M176 188C176 191.865 172.866 195 169 195C165.135 195 162 191.865 162 188C162 184.135 165.135 181 169 181C172.866 181 176 184.135 176 188Z" fill="#E03C8A"/>
<path fill-rule="evenodd" clip-rule="evenodd" d="M580 250.499C580 252.985 577.986 255 575.5 255C573.015 255 571 252.985 571 250.499C571 248.014 573.015 246 575.5 246C577.986 246 580 248.014 580 250.499Z" fill="#E03C8A"/>
<path fill-rule="evenodd" clip-rule="evenodd" d="M323 400C323 406.076 318.075 411 312.001 411C305.926 411 301 406.076 301 400C301 393.924 305.926 389 312.001 389C318.075 389 323 393.924 323 400Z" fill="#E03C8A"/>
<path opacity="0.285831" fill-rule="evenodd" clip-rule="evenodd" d="M553.557 465.094C540.803 470.373 526.184 464.312 520.906 451.558C515.627 438.803 521.688 424.184 534.443 418.905C547.197 413.629 561.816 419.687 567.094 432.443C572.373 445.198 566.312 459.815 553.557 465.094Z" fill="#F3F3F3"/>
<path fill-rule="evenodd" clip-rule="evenodd" d="M160.749 85.3519C156.413 87.1468 151.442 85.0853 149.648 80.7497C147.853 76.413 149.914 71.442 154.25 69.6482C158.587 67.8533 163.556 69.9138 165.352 74.2505C167.147 78.5871 165.085 83.5571 160.749 85.3519Z" fill="#999999"/>
<path fill-rule="evenodd" clip-rule="evenodd" d="M158.35 525.754C156.552 530.09 151.581 532.147 147.246 530.35C142.911 528.552 140.852 523.581 142.651 519.246C144.448 514.909 149.419 512.853 153.754 514.65C158.091 516.447 160.147 521.419 158.35 525.754Z" fill="#27415B"/>
<path fill-rule="evenodd" clip-rule="evenodd" d="M597.465 183.679C595.985 187.25 591.89 188.945 588.321 187.465C584.75 185.985 583.055 181.89 584.535 178.32C586.016 174.75 590.11 173.055 593.679 174.535C597.25 176.015 598.945 180.11 597.465 183.679Z" fill="#999999"/>
<path fill-rule="evenodd" clip-rule="evenodd" d="M376.676 518.466C373.105 519.944 369.012 518.248 367.534 514.676C366.056 511.105 367.753 507.012 371.324 505.534C374.895 504.056 378.988 505.752 380.466 509.324C381.945 512.896 380.246 516.988 376.676 518.466Z" fill="#999999"/>
<path fill-rule="evenodd" clip-rule="evenodd" d="M501.465 310.68C499.985 314.25 495.89 315.945 492.32 314.465C488.75 312.985 487.055 308.891 488.535 305.32C490.015 301.75 494.11 300.055 497.68 301.535C501.25 303.015 502.945 307.11 501.465 310.68Z" fill="#999999"/>
<mask id="mask0_1_34" style="mask-type:luminance" maskUnits="userSpaceOnUse" x="25" y="356" width="14" height="15">
<path d="M25 356.473H38.9344V370.407H25V356.473Z" fill="#27415B"/>
</mask>
<g mask="url(#mask0_1_34)">
<path fill-rule="evenodd" clip-rule="evenodd" d="M38.4018 366.107C36.9286 369.66 32.8528 371.348 29.3 369.874C25.7461 368.401 24.0596 364.326 25.5328 360.773C27.0061 357.219 31.0818 355.532 34.6346 357.006C38.1886 358.479 39.875 362.554 38.4018 366.107Z" fill="#27415B"/>
</g>
<path fill-rule="evenodd" clip-rule="evenodd" d="M418 413C418 420.18 412.179 426 405 426C397.821 426 392 420.18 392 413C392 405.82 397.821 400 405 400C412.179 400 418 405.82 418 413Z" fill="#26B6C0"/>
<path fill-rule="evenodd" clip-rule="evenodd" d="M454 185C454 192.179 448.18 198 440.999 198C433.821 198 428 192.179 428 185C428 177.82 433.821 172 440.999 172C448.18 172 454 177.82 454 185Z" fill="#26B6C0"/>
<path fill-rule="evenodd" clip-rule="evenodd" d="M298 138.501C298 150.375 288.374 160 276.501 160C264.626 160 255 150.375 255 138.501C255 126.626 264.626 117 276.501 117C288.374 117 298 126.626 298 138.501Z" fill="#26B6C0"/>
<path opacity="0.201172" fill-rule="evenodd" clip-rule="evenodd" d="M355.173 355.578C325.583 367.824 291.668 353.764 279.423 324.174C267.176 294.583 281.237 260.668 310.827 248.422C340.417 236.176 374.333 250.236 386.577 279.827C398.824 309.417 384.763 343.332 355.173 355.578Z" fill="#999999"/>
<g opacity="0.151344">
<path fill-rule="evenodd" clip-rule="evenodd" d="M488.58 464.913C475.982 434.473 490.447 399.585 520.887 386.987C551.326 374.389 586.216 388.854 598.813 419.293C611.41 449.733 596.946 484.622 566.507 497.22C536.066 509.817 501.177 495.353 488.58 464.913Z" fill="#26B6C0"/>
</g>
<path opacity="0.177223" fill-rule="evenodd" clip-rule="evenodd" d="M228.616 307.484C211.78 314.452 192.483 306.451 185.515 289.615C178.549 272.78 186.548 253.483 203.384 246.517C220.22 239.548 239.517 247.547 246.485 264.384C253.451 281.22 245.452 300.516 228.616 307.484Z" fill="#26B6C0"/>
<path opacity="0.286807" fill-rule="evenodd" clip-rule="evenodd" d="M398.35 162.34C373.862 172.475 345.794 160.838 335.659 136.35C325.526 111.862 337.161 83.7941 361.65 73.6593C386.138 63.5255 414.205 75.1614 424.34 99.6497C434.475 124.138 422.838 152.205 398.35 162.34Z" fill="#26B6C0"/>
<path fill-rule="evenodd" clip-rule="evenodd" d="M340.337 321.437C329.879 325.765 317.891 320.796 313.563 310.337C309.234 299.878 314.205 287.891 324.664 283.563C335.122 279.234 347.109 284.204 351.437 294.663C355.766 305.122 350.796 317.109 340.337 321.437Z" fill="#2CDDE9"/>
<path fill-rule="evenodd" clip-rule="evenodd" d="M546.676 448.466C543.104 449.944 539.012 448.248 537.534 444.676C536.056 441.104 537.752 437.012 541.323 435.534C544.896 434.056 548.987 435.752 550.466 439.324C551.944 442.895 550.247 446.988 546.676 448.466Z" fill="#2CDDE9"/>
<path fill-rule="evenodd" clip-rule="evenodd" d="M219.132 285.314C214.286 287.214 208.729 285.032 206.724 280.44C204.718 275.848 207.022 270.587 211.868 268.686C216.715 266.786 222.27 268.967 224.276 273.559C226.281 278.151 223.979 283.413 219.132 285.314Z" fill="#2CDDE9"/>
<path fill-rule="evenodd" clip-rule="evenodd" d="M385.278 130.047C378.901 132.687 371.592 129.655 368.953 123.278C366.314 116.902 369.345 109.591 375.721 106.953C382.099 104.314 389.408 107.344 392.047 113.721C394.686 120.098 391.655 127.407 385.278 130.047Z" fill="#2CDDE9"/>
</svg>
