<?xml version="1.0" encoding="UTF-8"?>
<svg width="88px" height="109px" viewBox="0 0 88 109" version="1.1" xmlns="http://www.w3.org/2000/svg" xmlns:xlink="http://www.w3.org/1999/xlink">
    <!-- Generator: Sketch 62 (91390) - https://sketch.com -->
    <title>CB-Logo</title>
    <desc>Created with Sketch.</desc>
    <g id="Page-1" stroke="none" stroke-width="1" fill="none" fill-rule="evenodd">
        <g id="CB-Logo" transform="translate(-0.001229, 0.000000)" fill="#DE7045">
            <path d="M88.001229,0 L88.001229,92.2596362 L44.001229,109 L0.0012290071,92.2596362 L0.000234305102,46.7532863 C1.49239241,50.8259178 4.75265817,54 10.4202766,54 C18.0155147,54 21.001229,48.3421462 21.001229,42.6842924 L15.6059909,42.6842924 C15.6059909,48.5536547 13.7202766,50.6158631 10.5774195,50.6158631 C7.48694329,50.6158631 6.07265758,47.5489891 6.07265758,43.3716952 L6.07265758,29.3063764 C6.07265758,26.3452566 6.70122901,23.437014 9.84408615,23.437014 C13.9298004,23.437014 15.6059909,30.681182 15.6059909,35.9160187 L21.001229,35.9160187 L21.001229,20.2115086 L17.4393242,20.2115086 C17.4393242,21.5863142 17.1250385,21.903577 16.601229,21.903577 C15.9726576,21.903577 14.9250385,21.4805599 14.0869433,21.0046656 C12.7250385,20.3172628 11.3631338,20 9.84408615,20 C5.13336838,20 1.62345482,23.286352 -2.26485497e-14,27.1865899 L0.0012290071,0 L88.001229,0 Z M38.8746467,20 L24.001229,20 L24.001229,23.0761905 L25.6889927,23.3460317 C26.743845,23.5619048 27.3767564,25.1269841 27.3767564,27.6634921 L27.3767564,46.3365079 C27.3767564,48.8190476 26.9548155,50.384127 25.6889927,50.6539683 L24.001229,50.9238095 L24.001229,54 L40.2459547,54 C45.5202163,54 49.001229,50.5460317 49.001229,43.8 C49.001229,40.7777778 47.9991193,38.2952381 45.7839294,36.4063492 L45.7839294,36.352381 C46.8915244,35.4888889 48.7902585,33.0603175 48.7902585,29.0126984 C48.7902585,23.4539683 45.3619885,20 38.8746467,20 Z" id="Combined-Shape"></path>
            <g id="CB-2" transform="translate(34.001229, 24.000000)" fill-rule="nonzero">
                <path d="M4.68208092,27 L1.76878613,27 C0.676300578,27 0,25.6255507 0,23.1938326 L0,15 L4.52601156,15 C7.28323699,15 9,17.3259912 9,20.6563877 C9,23.6167401 7.49132948,27 4.68208092,27 Z" id="Path"></path>
                <path d="M4.68208092,11 L0,11 L0,4.33160622 C0,1.5388601 0.676300578,0 1.76878613,0 L5.46242775,0 C7.17919075,0 9,2.39378238 9,5.98445596 C9,9.06217617 7.5433526,11 4.68208092,11 Z" id="Path"></path>
            </g>
        </g>
    </g>
</svg>