<svg width="88" height="109" viewBox="0 0 88 109" fill="none" xmlns="http://www.w3.org/2000/svg">
<g clip-path="url(#clip0_1_2)">
<path fill-rule="evenodd" clip-rule="evenodd" d="M88 0V92.2596L44 109L6.74627e-07 92.2596L-0.000994027 46.7533C1.49116 50.8259 4.75143 54 10.419 54C18.0143 54 21 48.3421 21 42.6843H15.6048C15.6048 48.5537 13.719 50.6159 10.5762 50.6159C7.48571 50.6159 6.07143 47.549 6.07143 43.3717V29.3064C6.07143 26.3453 6.7 23.437 9.84286 23.437C13.9286 23.437 15.6048 30.6812 15.6048 35.916H21V20.2115H17.4381C17.4381 21.5863 17.1238 21.9036 16.6 21.9036C15.9714 21.9036 14.9238 21.4806 14.0857 21.0047C12.7238 20.3173 11.3619 20 9.84286 20C5.13214 20 1.62223 23.2864 -0.00122833 27.1866L6.74627e-07 0H88ZM38.8734 20H24V23.0762L25.6878 23.346C26.7426 23.5619 27.3755 25.127 27.3755 27.6635V46.3365C27.3755 48.819 26.9536 50.3841 25.6878 50.654L24 50.9238V54H40.2447C45.519 54 49 50.546 49 43.8C49 40.7778 47.9979 38.2952 45.7827 36.4063V36.3524C46.8903 35.4889 48.789 33.0603 48.789 29.0127C48.789 23.454 45.3608 20 38.8734 20Z" fill="#DE7045"/>
<path d="M38.6821 51H35.7688C34.6763 51 34 49.6256 34 47.1938V39H38.526C41.2832 39 43 41.326 43 44.6564C43 47.6167 41.4913 51 38.6821 51Z" fill="#DE7045"/>
<path d="M38.6821 35H34V28.3316C34 25.5389 34.6763 24 35.7688 24H39.4624C41.1792 24 43 26.3938 43 29.9845C43 33.0622 41.5434 35 38.6821 35Z" fill="#DE7045"/>
</g>
<defs>
<clipPath id="clip0_1_2">
<rect width="88" height="109" fill="white"/>
</clipPath>
</defs>
</svg>
